<svg width="89" height="89" viewBox="0 0 89 89" fill="none" xmlns="http://www.w3.org/2000/svg">
<rect width="89" height="89" rx="13" fill="white"/>
<path d="M27.725 68L26.493 65.824H25.965V68H24.845V62.416H26.941C27.373 62.416 27.741 62.4933 28.045 62.648C28.349 62.7973 28.5756 63.0027 28.725 63.264C28.8796 63.52 28.957 63.808 28.957 64.128C28.957 64.496 28.8503 64.8293 28.637 65.128C28.4236 65.4213 28.1063 65.624 27.685 65.736L29.021 68H27.725ZM25.965 64.984H26.901C27.205 64.984 27.4316 64.912 27.581 64.768C27.7303 64.6187 27.805 64.4133 27.805 64.152C27.805 63.896 27.7303 63.6987 27.581 63.56C27.4316 63.416 27.205 63.344 26.901 63.344H25.965V64.984ZM34.09 65.688C34.09 65.848 34.0793 65.992 34.058 66.12H30.818C30.8446 66.44 30.9566 66.6907 31.154 66.872C31.3513 67.0533 31.594 67.144 31.882 67.144C32.298 67.144 32.594 66.9653 32.77 66.608H33.978C33.85 67.0347 33.6046 67.3867 33.242 67.664C32.8793 67.936 32.434 68.072 31.906 68.072C31.4793 68.072 31.0953 67.9787 30.754 67.792C30.418 67.6 30.154 67.3307 29.962 66.984C29.7753 66.6373 29.682 66.2373 29.682 65.784C29.682 65.3253 29.7753 64.9227 29.962 64.576C30.1486 64.2293 30.41 63.9627 30.746 63.776C31.082 63.5893 31.4686 63.496 31.906 63.496C32.3273 63.496 32.7033 63.5867 33.034 63.768C33.37 63.9493 33.6286 64.208 33.81 64.544C33.9966 64.8747 34.09 65.256 34.09 65.688ZM32.93 65.368C32.9246 65.08 32.8206 64.8507 32.618 64.68C32.4153 64.504 32.1673 64.416 31.874 64.416C31.5966 64.416 31.362 64.5013 31.17 64.672C30.9833 64.8373 30.8686 65.0693 30.826 65.368H32.93ZM36.6435 63.496C36.9741 63.496 37.2648 63.5627 37.5155 63.696C37.7661 63.824 37.9635 63.992 38.1075 64.2V63.568H39.2355V68.032C39.2355 68.4427 39.1528 68.808 38.9875 69.128C38.8221 69.4533 38.5741 69.7093 38.2435 69.896C37.9128 70.088 37.5128 70.184 37.0435 70.184C36.4141 70.184 35.8968 70.0373 35.4915 69.744C35.0915 69.4507 34.8648 69.0507 34.8115 68.544H35.9235C35.9821 68.7467 36.1075 68.9067 36.2995 69.024C36.4968 69.1467 36.7341 69.208 37.0115 69.208C37.3368 69.208 37.6008 69.1093 37.8035 68.912C38.0061 68.72 38.1075 68.4267 38.1075 68.032V67.344C37.9635 67.552 37.7635 67.7253 37.5075 67.864C37.2568 68.0027 36.9688 68.072 36.6435 68.072C36.2701 68.072 35.9288 67.976 35.6195 67.784C35.3101 67.592 35.0648 67.3227 34.8835 66.976C34.7075 66.624 34.6195 66.2213 34.6195 65.768C34.6195 65.32 34.7075 64.9227 34.8835 64.576C35.0648 64.2293 35.3075 63.9627 35.6115 63.776C35.9208 63.5893 36.2648 63.496 36.6435 63.496ZM38.1075 65.784C38.1075 65.512 38.0541 65.28 37.9475 65.088C37.8408 64.8907 37.6968 64.7413 37.5155 64.64C37.3341 64.5333 37.1395 64.48 36.9315 64.48C36.7235 64.48 36.5315 64.5307 36.3555 64.632C36.1795 64.7333 36.0355 64.8827 35.9235 65.08C35.8168 65.272 35.7635 65.5013 35.7635 65.768C35.7635 66.0347 35.8168 66.2693 35.9235 66.472C36.0355 66.6693 36.1795 66.8213 36.3555 66.928C36.5368 67.0347 36.7288 67.088 36.9315 67.088C37.1395 67.088 37.3341 67.0373 37.5155 66.936C37.6968 66.8293 37.8408 66.68 37.9475 66.488C38.0541 66.2907 38.1075 66.056 38.1075 65.784ZM40.8973 63.04C40.7 63.04 40.5347 62.9787 40.4013 62.856C40.2733 62.728 40.2093 62.5707 40.2093 62.384C40.2093 62.1973 40.2733 62.0427 40.4013 61.92C40.5347 61.792 40.7 61.728 40.8973 61.728C41.0947 61.728 41.2573 61.792 41.3853 61.92C41.5187 62.0427 41.5853 62.1973 41.5853 62.384C41.5853 62.5707 41.5187 62.728 41.3853 62.856C41.2573 62.9787 41.0947 63.04 40.8973 63.04ZM41.4493 63.568V68H40.3293V63.568H41.4493ZM44.2519 68.072C43.8892 68.072 43.5639 68.008 43.2759 67.88C42.9879 67.7467 42.7586 67.568 42.5879 67.344C42.4226 67.12 42.3319 66.872 42.3159 66.6H43.4439C43.4652 66.7707 43.5479 66.912 43.6919 67.024C43.8412 67.136 44.0252 67.192 44.2439 67.192C44.4572 67.192 44.6226 67.1493 44.7399 67.064C44.8626 66.9787 44.9239 66.8693 44.9239 66.736C44.9239 66.592 44.8492 66.4853 44.6999 66.416C44.5559 66.3413 44.3239 66.2613 44.0039 66.176C43.6732 66.096 43.4012 66.0133 43.1879 65.928C42.9799 65.8427 42.7986 65.712 42.6439 65.536C42.4946 65.36 42.4199 65.1227 42.4199 64.824C42.4199 64.5787 42.4892 64.3547 42.6279 64.152C42.7719 63.9493 42.9746 63.7893 43.2359 63.672C43.5026 63.5547 43.8146 63.496 44.1719 63.496C44.6999 63.496 45.1212 63.6293 45.4359 63.896C45.7506 64.1573 45.9239 64.512 45.9559 64.96H44.8839C44.8679 64.784 44.7932 64.6453 44.6599 64.544C44.5319 64.4373 44.3586 64.384 44.1399 64.384C43.9372 64.384 43.7799 64.4213 43.6679 64.496C43.5612 64.5707 43.5079 64.6747 43.5079 64.808C43.5079 64.9573 43.5826 65.072 43.7319 65.152C43.8812 65.2267 44.1132 65.304 44.4279 65.384C44.7479 65.464 45.0119 65.5467 45.2199 65.632C45.4279 65.7173 45.6066 65.8507 45.7559 66.032C45.9106 66.208 45.9906 66.4427 45.9959 66.736C45.9959 66.992 45.9239 67.2213 45.7799 67.424C45.6412 67.6267 45.4386 67.7867 45.1719 67.904C44.9106 68.016 44.6039 68.072 44.2519 68.072ZM48.2193 64.488V66.632C48.2193 66.7813 48.2539 66.8907 48.3233 66.96C48.3979 67.024 48.5206 67.056 48.6913 67.056H49.2113V68H48.5073C47.5633 68 47.0913 67.5413 47.0913 66.624V64.488H46.5633V63.568H47.0913V62.472H48.2193V63.568H49.2113V64.488H48.2193ZM51.1368 64.256C51.2808 64.0213 51.4675 63.8373 51.6968 63.704C51.9315 63.5707 52.1982 63.504 52.4968 63.504V64.68H52.2008C51.8488 64.68 51.5822 64.7627 51.4008 64.928C51.2248 65.0933 51.1368 65.3813 51.1368 65.792V68H50.0168V63.568H51.1368V64.256ZM52.9632 65.768C52.9632 65.32 53.0512 64.9227 53.2272 64.576C53.4086 64.2293 53.6512 63.9627 53.9552 63.776C54.2646 63.5893 54.6086 63.496 54.9872 63.496C55.3179 63.496 55.6059 63.5627 55.8512 63.696C56.1019 63.8293 56.3019 63.9973 56.4512 64.2V63.568H57.5792V68H56.4512V67.352C56.3072 67.56 56.1072 67.7333 55.8512 67.872C55.6006 68.0053 55.3099 68.072 54.9792 68.072C54.6059 68.072 54.2646 67.976 53.9552 67.784C53.6512 67.592 53.4086 67.3227 53.2272 66.976C53.0512 66.624 52.9632 66.2213 52.9632 65.768ZM56.4512 65.784C56.4512 65.512 56.3979 65.28 56.2912 65.088C56.1846 64.8907 56.0406 64.7413 55.8592 64.64C55.6779 64.5333 55.4832 64.48 55.2752 64.48C55.0672 64.48 54.8752 64.5307 54.6992 64.632C54.5232 64.7333 54.3792 64.8827 54.2672 65.08C54.1606 65.272 54.1072 65.5013 54.1072 65.768C54.1072 66.0347 54.1606 66.2693 54.2672 66.472C54.3792 66.6693 54.5232 66.8213 54.6992 66.928C54.8806 67.0347 55.0726 67.088 55.2752 67.088C55.4832 67.088 55.6779 67.0373 55.8592 66.936C56.0406 66.8293 56.1846 66.68 56.2912 66.488C56.3979 66.2907 56.4512 66.056 56.4512 65.784ZM60.3691 68.072C60.0064 68.072 59.6811 68.008 59.3931 67.88C59.1051 67.7467 58.8758 67.568 58.7051 67.344C58.5398 67.12 58.4491 66.872 58.4331 66.6H59.5611C59.5824 66.7707 59.6651 66.912 59.8091 67.024C59.9584 67.136 60.1424 67.192 60.3611 67.192C60.5744 67.192 60.7398 67.1493 60.8571 67.064C60.9798 66.9787 61.0411 66.8693 61.0411 66.736C61.0411 66.592 60.9664 66.4853 60.8171 66.416C60.6731 66.3413 60.4411 66.2613 60.1211 66.176C59.7904 66.096 59.5184 66.0133 59.3051 65.928C59.0971 65.8427 58.9158 65.712 58.7611 65.536C58.6118 65.36 58.5371 65.1227 58.5371 64.824C58.5371 64.5787 58.6064 64.3547 58.7451 64.152C58.8891 63.9493 59.0918 63.7893 59.3531 63.672C59.6198 63.5547 59.9318 63.496 60.2891 63.496C60.8171 63.496 61.2384 63.6293 61.5531 63.896C61.8678 64.1573 62.0411 64.512 62.0731 64.96H61.0011C60.9851 64.784 60.9104 64.6453 60.7771 64.544C60.6491 64.4373 60.4758 64.384 60.2571 64.384C60.0544 64.384 59.8971 64.4213 59.7851 64.496C59.6784 64.5707 59.6251 64.6747 59.6251 64.808C59.6251 64.9573 59.6998 65.072 59.8491 65.152C59.9984 65.2267 60.2304 65.304 60.5451 65.384C60.8651 65.464 61.1291 65.5467 61.3371 65.632C61.5451 65.7173 61.7238 65.8507 61.8731 66.032C62.0278 66.208 62.1078 66.4427 62.1131 66.736C62.1131 66.992 62.0411 67.2213 61.8971 67.424C61.7584 67.6267 61.5558 67.7867 61.2891 67.904C61.0278 68.016 60.7211 68.072 60.3691 68.072ZM63.6005 63.04C63.4031 63.04 63.2378 62.9787 63.1045 62.856C62.9765 62.728 62.9125 62.5707 62.9125 62.384C62.9125 62.1973 62.9765 62.0427 63.1045 61.92C63.2378 61.792 63.4031 61.728 63.6005 61.728C63.7978 61.728 63.9605 61.792 64.0885 61.92C64.2218 62.0427 64.2885 62.1973 64.2885 62.384C64.2885 62.5707 64.2218 62.728 64.0885 62.856C63.9605 62.9787 63.7978 63.04 63.6005 63.04ZM64.1525 63.568V68H63.0325V63.568H64.1525ZM23.7778 74.416V75.32H22.2898V80H21.1698V75.32H19.6818V74.416H23.7778ZM28.715 77.688C28.715 77.848 28.7043 77.992 28.683 78.12H25.443C25.4696 78.44 25.5816 78.6907 25.779 78.872C25.9763 79.0533 26.219 79.144 26.507 79.144C26.923 79.144 27.219 78.9653 27.395 78.608H28.603C28.475 79.0347 28.2296 79.3867 27.867 79.664C27.5043 79.936 27.059 80.072 26.531 80.072C26.1043 80.072 25.7203 79.9787 25.379 79.792C25.043 79.6 24.779 79.3307 24.587 78.984C24.4003 78.6373 24.307 78.2373 24.307 77.784C24.307 77.3253 24.4003 76.9227 24.587 76.576C24.7736 76.2293 25.035 75.9627 25.371 75.776C25.707 75.5893 26.0936 75.496 26.531 75.496C26.9523 75.496 27.3283 75.5867 27.659 75.768C27.995 75.9493 28.2536 76.208 28.435 76.544C28.6216 76.8747 28.715 77.256 28.715 77.688ZM27.555 77.368C27.5496 77.08 27.4456 76.8507 27.243 76.68C27.0403 76.504 26.7923 76.416 26.499 76.416C26.2216 76.416 25.987 76.5013 25.795 76.672C25.6083 76.8373 25.4936 77.0693 25.451 77.368H27.555ZM30.6525 74.08V80H29.5325V74.08H30.6525ZM35.879 77.688C35.879 77.848 35.8684 77.992 35.847 78.12H32.607C32.6337 78.44 32.7457 78.6907 32.943 78.872C33.1404 79.0533 33.383 79.144 33.671 79.144C34.087 79.144 34.383 78.9653 34.559 78.608H35.767C35.639 79.0347 35.3937 79.3867 35.031 79.664C34.6684 79.936 34.223 80.072 33.695 80.072C33.2684 80.072 32.8844 79.9787 32.543 79.792C32.207 79.6 31.943 79.3307 31.751 78.984C31.5644 78.6373 31.471 78.2373 31.471 77.784C31.471 77.3253 31.5644 76.9227 31.751 76.576C31.9377 76.2293 32.199 75.9627 32.535 75.776C32.871 75.5893 33.2577 75.496 33.695 75.496C34.1164 75.496 34.4924 75.5867 34.823 75.768C35.159 75.9493 35.4177 76.208 35.599 76.544C35.7857 76.8747 35.879 77.256 35.879 77.688ZM34.719 77.368C34.7137 77.08 34.6097 76.8507 34.407 76.68C34.2044 76.504 33.9564 76.416 33.663 76.416C33.3857 76.416 33.151 76.5013 32.959 76.672C32.7724 76.8373 32.6577 77.0693 32.615 77.368H34.719ZM42.2005 75.504C42.7445 75.504 43.1819 75.672 43.5125 76.008C43.8485 76.3387 44.0165 76.8027 44.0165 77.4V80H42.8965V77.552C42.8965 77.2053 42.8085 76.9413 42.6325 76.76C42.4565 76.5733 42.2165 76.48 41.9125 76.48C41.6085 76.48 41.3659 76.5733 41.1845 76.76C41.0085 76.9413 40.9205 77.2053 40.9205 77.552V80H39.8005V77.552C39.8005 77.2053 39.7125 76.9413 39.5365 76.76C39.3605 76.5733 39.1205 76.48 38.8165 76.48C38.5072 76.48 38.2619 76.5733 38.0805 76.76C37.9045 76.9413 37.8165 77.2053 37.8165 77.552V80H36.6965V75.568H37.8165V76.104C37.9605 75.9173 38.1445 75.7707 38.3685 75.664C38.5979 75.5573 38.8485 75.504 39.1205 75.504C39.4672 75.504 39.7765 75.5787 40.0485 75.728C40.3205 75.872 40.5312 76.08 40.6805 76.352C40.8245 76.096 41.0325 75.8907 41.3045 75.736C41.5819 75.5813 41.8805 75.504 42.2005 75.504ZM49.1993 77.688C49.1993 77.848 49.1887 77.992 49.1673 78.12H45.9273C45.954 78.44 46.066 78.6907 46.2633 78.872C46.4607 79.0533 46.7033 79.144 46.9913 79.144C47.4073 79.144 47.7033 78.9653 47.8793 78.608H49.0873C48.9593 79.0347 48.714 79.3867 48.3513 79.664C47.9887 79.936 47.5433 80.072 47.0153 80.072C46.5887 80.072 46.2047 79.9787 45.8633 79.792C45.5273 79.6 45.2633 79.3307 45.0713 78.984C44.8847 78.6373 44.7913 78.2373 44.7913 77.784C44.7913 77.3253 44.8847 76.9227 45.0713 76.576C45.258 76.2293 45.5193 75.9627 45.8553 75.776C46.1913 75.5893 46.578 75.496 47.0153 75.496C47.4367 75.496 47.8127 75.5867 48.1433 75.768C48.4793 75.9493 48.738 76.208 48.9193 76.544C49.106 76.8747 49.1993 77.256 49.1993 77.688ZM48.0393 77.368C48.034 77.08 47.93 76.8507 47.7273 76.68C47.5247 76.504 47.2767 76.416 46.9833 76.416C46.706 76.416 46.4713 76.5013 46.2793 76.672C46.0927 76.8373 45.978 77.0693 45.9353 77.368H48.0393ZM49.7288 77.768C49.7288 77.32 49.8168 76.9227 49.9928 76.576C50.1742 76.2293 50.4195 75.9627 50.7288 75.776C51.0382 75.5893 51.3822 75.496 51.7608 75.496C52.0488 75.496 52.3235 75.56 52.5848 75.688C52.8462 75.8107 53.0542 75.976 53.2088 76.184V74.08H54.3448V80H53.2088V79.344C53.0702 79.5627 52.8755 79.7387 52.6248 79.872C52.3742 80.0053 52.0835 80.072 51.7528 80.072C51.3795 80.072 51.0382 79.976 50.7288 79.784C50.4195 79.592 50.1742 79.3227 49.9928 78.976C49.8168 78.624 49.7288 78.2213 49.7288 77.768ZM53.2168 77.784C53.2168 77.512 53.1635 77.28 53.0568 77.088C52.9502 76.8907 52.8062 76.7413 52.6248 76.64C52.4435 76.5333 52.2488 76.48 52.0408 76.48C51.8328 76.48 51.6408 76.5307 51.4648 76.632C51.2888 76.7333 51.1448 76.8827 51.0328 77.08C50.9262 77.272 50.8728 77.5013 50.8728 77.768C50.8728 78.0347 50.9262 78.2693 51.0328 78.472C51.1448 78.6693 51.2888 78.8213 51.4648 78.928C51.6462 79.0347 51.8382 79.088 52.0408 79.088C52.2488 79.088 52.4435 79.0373 52.6248 78.936C52.8062 78.8293 52.9502 78.68 53.0568 78.488C53.1635 78.2907 53.2168 78.056 53.2168 77.784ZM56.0067 75.04C55.8094 75.04 55.6441 74.9787 55.5107 74.856C55.3827 74.728 55.3187 74.5707 55.3187 74.384C55.3187 74.1973 55.3827 74.0427 55.5107 73.92C55.6441 73.792 55.8094 73.728 56.0067 73.728C56.2041 73.728 56.3667 73.792 56.4947 73.92C56.6281 74.0427 56.6947 74.1973 56.6947 74.384C56.6947 74.5707 56.6281 74.728 56.4947 74.856C56.3667 74.9787 56.2041 75.04 56.0067 75.04ZM56.5587 75.568V80H55.4387V75.568H56.5587ZM57.3773 77.784C57.3773 77.3253 57.4706 76.9253 57.6573 76.584C57.8439 76.2373 58.1026 75.9707 58.4333 75.784C58.7639 75.592 59.1426 75.496 59.5693 75.496C60.1186 75.496 60.5719 75.6347 60.9293 75.912C61.2919 76.184 61.5346 76.568 61.6573 77.064H60.4493C60.3853 76.872 60.2759 76.7227 60.1213 76.616C59.9719 76.504 59.7853 76.448 59.5613 76.448C59.2413 76.448 58.9879 76.5653 58.8013 76.8C58.6146 77.0293 58.5213 77.3573 58.5213 77.784C58.5213 78.2053 58.6146 78.5333 58.8013 78.768C58.9879 78.9973 59.2413 79.112 59.5613 79.112C60.0146 79.112 60.3106 78.9093 60.4493 78.504H61.6573C61.5346 78.984 61.2919 79.3653 60.9293 79.648C60.5666 79.9307 60.1133 80.072 59.5693 80.072C59.1426 80.072 58.7639 79.9787 58.4333 79.792C58.1026 79.6 57.8439 79.3333 57.6573 78.992C57.4706 78.6453 57.3773 78.2427 57.3773 77.784ZM62.1898 77.768C62.1898 77.32 62.2778 76.9227 62.4538 76.576C62.6351 76.2293 62.8778 75.9627 63.1818 75.776C63.4911 75.5893 63.8351 75.496 64.2138 75.496C64.5444 75.496 64.8324 75.5627 65.0778 75.696C65.3284 75.8293 65.5284 75.9973 65.6778 76.2V75.568H66.8058V80H65.6778V79.352C65.5338 79.56 65.3338 79.7333 65.0778 79.872C64.8271 80.0053 64.5364 80.072 64.2058 80.072C63.8324 80.072 63.4911 79.976 63.1818 79.784C62.8778 79.592 62.6351 79.3227 62.4538 78.976C62.2778 78.624 62.1898 78.2213 62.1898 77.768ZM65.6778 77.784C65.6778 77.512 65.6244 77.28 65.5178 77.088C65.4111 76.8907 65.2671 76.7413 65.0858 76.64C64.9044 76.5333 64.7098 76.48 64.5018 76.48C64.2938 76.48 64.1018 76.5307 63.9258 76.632C63.7498 76.7333 63.6058 76.8827 63.4938 77.08C63.3871 77.272 63.3338 77.5013 63.3338 77.768C63.3338 78.0347 63.3871 78.2693 63.4938 78.472C63.6058 78.6693 63.7498 78.8213 63.9258 78.928C64.1071 79.0347 64.2991 79.088 64.5018 79.088C64.7098 79.088 64.9044 79.0373 65.0858 78.936C65.2671 78.8293 65.4111 78.68 65.5178 78.488C65.6244 78.2907 65.6778 78.056 65.6778 77.784ZM69.0197 74.08V80H67.8997V74.08H69.0197Z" fill="black"/>
<path d="M26.5 49.5C22.634 49.5 19.5 46.366 19.5 42.5L19.5 35C19.5 20.9167 30.9167 9.5 45 9.5C59.0833 9.5 70.5 20.9167 70.5 35L70.5 42.5C70.5 46.366 67.366 49.5 63.5 49.5L26.5 49.5Z" fill="#B6E3FF"/>
<g clip-path="url(#clip0_81_1880)">
<path d="M35 40.405C35 38.5603 35 36.7157 35 34.871C35.0014 33.0827 35 31.2944 35.0055 29.5061C35.0082 28.567 34.9959 27.6252 35.0355 26.6874C35.0738 25.7644 35.5209 25.0494 36.3152 24.5422C36.7335 24.2753 37.1888 24.1116 37.6796 24.0579C38.046 24.0177 38.4179 24.0083 38.787 24.0056C39.9723 23.9989 41.1576 24.0002 42.3416 24.0016C43.7183 24.0029 45.0937 24.011 46.4704 24.011C47.802 24.011 49.1349 24.0002 50.4665 24.0029C50.956 24.0043 51.4454 24.0257 51.9335 24.0512C52.2302 24.0673 52.5296 24.0874 52.8208 24.1411C53.4893 24.2672 53.9924 24.6469 54.3697 25.1902C54.8072 25.8194 54.9768 26.5304 54.9795 27.2831C54.9822 28.5857 54.9727 29.8871 54.9727 31.1897C54.9713 33.4717 54.974 35.7538 54.9699 38.0371C54.9672 39.6846 54.9549 41.3334 54.9494 42.9808C54.9494 43.1163 54.9713 43.2518 54.9699 43.386C54.9686 43.7871 54.9535 44.1896 54.9563 44.5907C54.9604 45.067 54.9836 45.5432 54.9863 46.0181C54.9891 46.4072 54.974 46.7962 54.9672 47.184C54.9604 47.5636 54.948 47.9446 54.9494 48.3243C54.9508 48.8395 54.9672 49.356 54.9713 49.8711C54.9822 50.9323 54.9904 51.9935 54.9986 53.0547C55.0041 53.7147 54.9932 54.3761 54.7826 55.0093C54.4203 56.096 53.6534 56.7534 52.4995 56.9077C51.8856 56.9895 51.2568 56.9855 50.6333 56.9908C49.3865 57.0029 48.1383 56.9989 46.8901 56.9935C45.3794 56.9882 43.8701 56.9667 42.3594 56.9667C41.0059 56.9667 39.651 56.9882 38.2976 56.9935C37.8765 56.9949 37.4527 57.0016 37.0425 56.8701C36.4669 56.6863 36.024 56.3362 35.6644 55.8666C35.3473 55.4521 35.1654 54.9865 35.0697 54.4848C35.0451 54.352 35.0287 54.2165 35.0287 54.0823C35.0273 52.1907 35.0287 50.2977 35.0273 48.4034C35.026 47.0525 35.0232 45.7015 35.0191 44.3519C35.015 43.1284 35.0082 41.9035 35.0027 40.68C35.0027 40.5888 35.0027 40.4962 35.0027 40.405C35.0014 40.405 35.0014 40.405 35 40.405ZM35.998 52.1156C36.0746 52.1156 36.1183 52.1156 36.1621 52.1156C36.4341 52.1102 36.7048 52.1008 36.9769 52.1022C39.3298 52.1062 41.6813 52.1169 44.0341 52.1169C46.9612 52.1169 49.8882 52.1075 52.8153 52.1008C53.1366 52.0995 53.4565 52.0901 53.7778 52.0887C53.9049 52.0887 53.9801 52.0445 53.9869 51.9103C53.9965 51.7319 54.0239 51.5535 54.0225 51.375C54.0157 50.562 53.9938 49.749 53.9897 48.9374C53.9856 48.2639 53.9992 47.5918 54.0047 46.9183C54.0157 45.4842 54.0348 44.05 54.0348 42.6172C54.0362 40.9564 54.017 39.2955 54.0143 37.6333C54.0129 36.6459 54.0266 35.6572 54.0307 34.6698C54.0375 33.1659 54.0567 31.662 54.0444 30.1581C54.0348 29.0271 53.9938 27.8948 53.9514 26.7639C53.9282 26.1347 53.6301 25.6504 53.0723 25.3271C52.7524 25.1419 52.3997 25.0359 52.0347 25.0252C51.4837 25.0078 50.9327 25.0306 50.3818 25.0426C50.2013 25.0467 50.1398 25.1124 50.1289 25.2949C50.1152 25.5296 50.1275 25.7658 50.1015 25.9992C50.0619 26.3547 49.7707 26.6619 49.4097 26.721C49.0912 26.7733 48.7672 26.8202 48.4445 26.8216C47.3084 26.8296 46.1723 26.8175 45.0376 26.8149C44.1517 26.8135 43.2644 26.8189 42.3785 26.8122C41.8658 26.8082 41.3545 26.7894 40.8418 26.7706C40.7147 26.7652 40.5711 26.7652 40.4631 26.7116C40.1541 26.5573 39.9176 26.3279 39.867 25.9724C39.8411 25.7872 39.8438 25.5981 39.8397 25.4116C39.8342 25.1553 39.7454 25.052 39.4842 25.0359C39.2846 25.0239 39.0837 25.0225 38.8841 25.0212C38.381 25.0158 37.8778 25.0064 37.3843 25.1245C36.564 25.319 36.1252 25.8784 36.0021 26.6727C35.9256 27.165 35.9502 27.6748 35.9433 28.1779C35.9297 29.4081 35.9146 30.641 35.9146 31.8726C35.916 33.9574 35.9269 36.0435 35.9392 38.1283C35.942 38.504 35.9802 38.8783 35.9843 39.2526C35.9884 39.6457 35.9625 40.0387 35.9625 40.4318C35.9625 42.691 35.9693 44.9502 35.9666 47.2094C35.9652 48.5255 35.9474 49.8416 35.9461 51.1564C35.9461 51.473 35.9802 51.7896 35.998 52.1156ZM45.4204 53.4558C45.4204 53.4384 45.4204 53.4209 45.4204 53.4048C45.0731 53.4048 44.7259 53.4008 44.3786 53.4062C43.8236 53.4142 43.2685 53.429 42.7175 53.5256C42.2459 53.6074 42.0148 54.1118 42.1474 54.5089C42.239 54.784 42.4892 55.0979 42.8406 55.1126C43.2357 55.1301 43.6294 55.173 44.0245 55.1811C45.0608 55.1999 46.0985 55.2066 47.1334 55.1126C47.6789 55.063 47.9318 54.4794 47.8471 54.1239C47.75 53.7201 47.3987 53.4625 46.9284 53.4571C46.4266 53.4518 45.9235 53.4558 45.4204 53.4558Z" fill="#4BABE7"/>
<path d="M52.1605 39.1089C52.2001 39.5261 52.0361 39.8964 51.8706 40.2626C51.5726 40.9227 51.1994 41.5411 50.7824 42.1341C50.2342 42.9149 49.634 43.6568 48.9873 44.3611C48.6141 44.7663 48.2368 45.1674 47.8471 45.5578C47.318 46.0864 46.7042 46.517 46.0849 46.9342C45.5066 47.3233 44.9187 47.7003 44.3171 48.0545C43.773 48.3738 43.218 48.6716 42.6205 48.897C42.1885 49.0606 41.7551 49.1492 41.2957 49.1264C40.9129 49.1062 40.5534 49.0016 40.2089 48.8433C39.7618 48.6394 39.3107 48.4368 38.9415 48.1068C38.6312 47.8304 38.4138 47.4937 38.3523 47.0791C38.314 46.8229 38.3632 46.5747 38.5245 46.3721C39.189 45.5336 39.9819 44.8454 40.9717 44.392C41.6786 44.0686 42.3115 44.3356 42.6971 44.887C42.8406 45.0923 42.9719 45.3042 43.1004 45.5189C43.2549 45.7765 43.4832 45.8288 43.7634 45.7859C44.35 45.696 44.8517 45.4196 45.3316 45.099C45.996 44.6549 46.5825 44.125 47.1335 43.5481C47.4958 43.1671 47.8635 42.7968 48.1288 42.342C48.3516 41.9597 48.5799 41.58 48.677 41.144C48.7358 40.877 48.6893 40.7603 48.4541 40.6168C48.2245 40.4773 47.9838 40.3525 47.7583 40.2049C47.4889 40.0278 47.2538 39.8132 47.1663 39.4899C47.0719 39.1437 47.143 38.8124 47.3071 38.5051C47.6434 37.8733 48.0932 37.3205 48.6182 36.8309C48.8424 36.6216 49.0844 36.4203 49.3455 36.2607C50.0045 35.8582 50.3476 35.9374 50.8931 36.4096C51.6136 37.0348 52.0032 37.8464 52.1577 38.7694C52.1769 38.8794 52.1605 38.9948 52.1605 39.1089Z" fill="#4BABE7"/>
<path d="M37.2982 37.6559C37.2545 35.6234 39.1493 33.8593 41.2507 33.8834C43.0293 33.9035 45.0814 35.2827 45.0705 37.676C45.0609 39.8923 43.274 41.4418 41.2616 41.4405C39.066 41.4392 37.2764 39.8427 37.2982 37.6559ZM41.1782 40.4759C42.6684 40.4813 44.0533 39.3436 44.0861 37.6519C44.1189 35.9803 42.5481 34.8494 41.1344 34.8587C39.58 34.8695 38.2867 36.1574 38.2894 37.7042C38.2894 39.082 39.5841 40.5054 41.1782 40.4759Z" fill="#4BABE7"/>
<path d="M41.2192 35.5121C41.371 35.5121 41.5213 35.5094 41.6731 35.5121C41.8563 35.5162 41.8809 35.5551 41.8795 35.7321C41.8768 36.0622 41.8782 36.3935 41.8987 36.7236C41.911 36.9181 42.0245 37.0066 42.2282 37.004C42.3827 37.0026 42.5371 36.9731 42.693 36.9677C42.8516 36.9624 43.0115 36.9597 43.1688 36.9771C43.3027 36.9919 43.3902 37.0952 43.3916 37.22C43.3943 37.5594 43.3807 37.9001 43.3629 38.2395C43.3574 38.3308 43.2877 38.3804 43.1838 38.3737C42.9445 38.3603 42.7039 38.3469 42.4647 38.3429C42.3362 38.3402 42.2077 38.3603 42.0791 38.3657C41.9561 38.371 41.8782 38.4394 41.8754 38.5481C41.8686 38.7815 41.8836 39.0163 41.885 39.2511C41.8864 39.3853 41.8836 39.5208 41.8727 39.6536C41.8659 39.7408 41.8043 39.8025 41.7155 39.8052C41.3874 39.8105 41.0593 39.8213 40.7325 39.8038C40.5425 39.7944 40.4645 39.6898 40.4618 39.4818C40.4604 39.2685 40.4837 39.0566 40.496 38.8433C40.496 38.8352 40.5015 38.8272 40.5028 38.8178C40.5616 38.5038 40.4604 38.3777 40.1337 38.3683C39.889 38.3616 39.6443 38.3683 39.3995 38.3657C39.3202 38.3643 39.2409 38.3522 39.1617 38.3402C39.0468 38.3227 38.9648 38.2516 38.9634 38.143C38.962 37.817 38.9648 37.491 38.9921 37.1663C39.0058 37.0013 39.1302 36.9208 39.3066 36.9288C39.4966 36.9382 39.6853 36.9731 39.8753 36.9879C39.9983 36.9973 40.1241 37.0026 40.2472 36.9919C40.4194 36.9771 40.4809 36.9101 40.4809 36.737C40.4796 36.5062 40.4645 36.2755 40.4563 36.0434C40.4536 35.9736 40.4495 35.9025 40.4591 35.8341C40.4878 35.606 40.5739 35.4732 40.846 35.4947C40.9704 35.5041 41.0948 35.496 41.2192 35.496C41.2192 35.5041 41.2192 35.5081 41.2192 35.5121Z" fill="#4BABE7"/>
</g>
<defs>
<clipPath id="clip0_81_1880">
<rect width="20" height="33" fill="white" transform="translate(35 24)"/>
</clipPath>
</defs>
</svg>
