<svg width="89" height="89" viewBox="0 0 89 89" fill="none" xmlns="http://www.w3.org/2000/svg">
<rect width="89" height="89" rx="13" fill="white"/>
<path d="M31.4867 68L30.2547 65.824H29.7267V68H28.6067V62.416H30.7027C31.1347 62.416 31.5027 62.4933 31.8067 62.648C32.1107 62.7973 32.3374 63.0027 32.4867 63.264C32.6414 63.52 32.7187 63.808 32.7187 64.128C32.7187 64.496 32.612 64.8293 32.3987 65.128C32.1854 65.4213 31.868 65.624 31.4467 65.736L32.7827 68H31.4867ZM29.7267 64.984H30.6627C30.9667 64.984 31.1934 64.912 31.3427 64.768C31.492 64.6187 31.5667 64.4133 31.5667 64.152C31.5667 63.896 31.492 63.6987 31.3427 63.56C31.1934 63.416 30.9667 63.344 30.6627 63.344H29.7267V64.984ZM34.2997 63.04C34.1024 63.04 33.937 62.9787 33.8037 62.856C33.6757 62.728 33.6117 62.5707 33.6117 62.384C33.6117 62.1973 33.6757 62.0427 33.8037 61.92C33.937 61.792 34.1024 61.728 34.2997 61.728C34.497 61.728 34.6597 61.792 34.7877 61.92C34.921 62.0427 34.9877 62.1973 34.9877 62.384C34.9877 62.5707 34.921 62.728 34.7877 62.856C34.6597 62.9787 34.497 63.04 34.2997 63.04ZM34.8517 63.568V68H33.7317V63.568H34.8517ZM42.1023 63.568L40.8063 68H39.5983L38.7903 64.904L37.9823 68H36.7663L35.4623 63.568H36.5983L37.3823 66.944L38.2303 63.568H39.4143L40.2463 66.936L41.0303 63.568H42.1023ZM42.4202 65.768C42.4202 65.32 42.5082 64.9227 42.6842 64.576C42.8656 64.2293 43.1083 63.9627 43.4123 63.776C43.7216 63.5893 44.0656 63.496 44.4443 63.496C44.7749 63.496 45.0629 63.5627 45.3083 63.696C45.5589 63.8293 45.7589 63.9973 45.9083 64.2V63.568H47.0363V68H45.9083V67.352C45.7643 67.56 45.5643 67.7333 45.3083 67.872C45.0576 68.0053 44.7669 68.072 44.4363 68.072C44.0629 68.072 43.7216 67.976 43.4123 67.784C43.1083 67.592 42.8656 67.3227 42.6842 66.976C42.5082 66.624 42.4202 66.2213 42.4202 65.768ZM45.9083 65.784C45.9083 65.512 45.8549 65.28 45.7483 65.088C45.6416 64.8907 45.4976 64.7413 45.3163 64.64C45.1349 64.5333 44.9403 64.48 44.7323 64.48C44.5243 64.48 44.3323 64.5307 44.1562 64.632C43.9803 64.7333 43.8363 64.8827 43.7243 65.08C43.6176 65.272 43.5643 65.5013 43.5643 65.768C43.5643 66.0347 43.6176 66.2693 43.7243 66.472C43.8363 66.6693 43.9803 66.8213 44.1562 66.928C44.3376 67.0347 44.5296 67.088 44.7323 67.088C44.9403 67.088 45.1349 67.0373 45.3163 66.936C45.4976 66.8293 45.6416 66.68 45.7483 66.488C45.8549 66.2907 45.9083 66.056 45.9083 65.784ZM52.3701 63.568L49.6261 70.096H48.4341L49.3941 67.888L47.6181 63.568H48.8741L50.0181 66.664L51.1781 63.568H52.3701ZM52.6859 65.768C52.6859 65.32 52.7739 64.9227 52.9499 64.576C53.1312 64.2293 53.3739 63.9627 53.6779 63.776C53.9872 63.5893 54.3312 63.496 54.7099 63.496C55.0405 63.496 55.3285 63.5627 55.5739 63.696C55.8245 63.8293 56.0245 63.9973 56.1739 64.2V63.568H57.3019V68H56.1739V67.352C56.0299 67.56 55.8299 67.7333 55.5739 67.872C55.3232 68.0053 55.0325 68.072 54.7019 68.072C54.3285 68.072 53.9872 67.976 53.6779 67.784C53.3739 67.592 53.1312 67.3227 52.9499 66.976C52.7739 66.624 52.6859 66.2213 52.6859 65.768ZM56.1739 65.784C56.1739 65.512 56.1205 65.28 56.0139 65.088C55.9072 64.8907 55.7632 64.7413 55.5819 64.64C55.4005 64.5333 55.2059 64.48 54.9979 64.48C54.7899 64.48 54.5979 64.5307 54.4219 64.632C54.2459 64.7333 54.1019 64.8827 53.9899 65.08C53.8832 65.272 53.8299 65.5013 53.8299 65.768C53.8299 66.0347 53.8832 66.2693 53.9899 66.472C54.1019 66.6693 54.2459 66.8213 54.4219 66.928C54.6032 67.0347 54.7952 67.088 54.9979 67.088C55.2059 67.088 55.4005 67.0373 55.5819 66.936C55.7632 66.8293 55.9072 66.68 56.0139 66.488C56.1205 66.2907 56.1739 66.056 56.1739 65.784ZM59.6998 64.488V66.632C59.6998 66.7813 59.7344 66.8907 59.8038 66.96C59.8784 67.024 60.0011 67.056 60.1718 67.056H60.6918V68H59.9878C59.0438 68 58.5718 67.5413 58.5718 66.624V64.488H58.0438V63.568H58.5718V62.472H59.6998V63.568H60.6918V64.488H59.6998ZM39.0697 74.416V80H37.9497V76.368L36.4537 80H35.6057L34.1017 76.368V80H32.9817V74.416H34.2537L36.0297 78.568L37.8057 74.416H39.0697ZM44.297 77.688C44.297 77.848 44.2863 77.992 44.265 78.12H41.025C41.0517 78.44 41.1637 78.6907 41.361 78.872C41.5583 79.0533 41.801 79.144 42.089 79.144C42.505 79.144 42.801 78.9653 42.977 78.608H44.185C44.057 79.0347 43.8117 79.3867 43.449 79.664C43.0863 79.936 42.641 80.072 42.113 80.072C41.6863 80.072 41.3023 79.9787 40.961 79.792C40.625 79.6 40.361 79.3307 40.169 78.984C39.9823 78.6373 39.889 78.2373 39.889 77.784C39.889 77.3253 39.9823 76.9227 40.169 76.576C40.3557 76.2293 40.617 75.9627 40.953 75.776C41.289 75.5893 41.6757 75.496 42.113 75.496C42.5343 75.496 42.9103 75.5867 43.241 75.768C43.577 75.9493 43.8357 76.208 44.017 76.544C44.2037 76.8747 44.297 77.256 44.297 77.688ZM43.137 77.368C43.1317 77.08 43.0277 76.8507 42.825 76.68C42.6223 76.504 42.3743 76.416 42.081 76.416C41.8037 76.416 41.569 76.5013 41.377 76.672C41.1903 76.8373 41.0757 77.0693 41.033 77.368H43.137ZM44.8265 77.768C44.8265 77.32 44.9145 76.9227 45.0905 76.576C45.2718 76.2293 45.5172 75.9627 45.8265 75.776C46.1358 75.5893 46.4798 75.496 46.8585 75.496C47.1465 75.496 47.4212 75.56 47.6825 75.688C47.9438 75.8107 48.1518 75.976 48.3065 76.184V74.08H49.4425V80H48.3065V79.344C48.1678 79.5627 47.9732 79.7387 47.7225 79.872C47.4718 80.0053 47.1812 80.072 46.8505 80.072C46.4772 80.072 46.1358 79.976 45.8265 79.784C45.5172 79.592 45.2718 79.3227 45.0905 78.976C44.9145 78.624 44.8265 78.2213 44.8265 77.768ZM48.3145 77.784C48.3145 77.512 48.2612 77.28 48.1545 77.088C48.0478 76.8907 47.9038 76.7413 47.7225 76.64C47.5412 76.5333 47.3465 76.48 47.1385 76.48C46.9305 76.48 46.7385 76.5307 46.5625 76.632C46.3865 76.7333 46.2425 76.8827 46.1305 77.08C46.0238 77.272 45.9705 77.5013 45.9705 77.768C45.9705 78.0347 46.0238 78.2693 46.1305 78.472C46.2425 78.6693 46.3865 78.8213 46.5625 78.928C46.7438 79.0347 46.9358 79.088 47.1385 79.088C47.3465 79.088 47.5412 79.0373 47.7225 78.936C47.9038 78.8293 48.0478 78.68 48.1545 78.488C48.2612 78.2907 48.3145 78.056 48.3145 77.784ZM51.1044 75.04C50.907 75.04 50.7417 74.9787 50.6084 74.856C50.4804 74.728 50.4164 74.5707 50.4164 74.384C50.4164 74.1973 50.4804 74.0427 50.6084 73.92C50.7417 73.792 50.907 73.728 51.1044 73.728C51.3017 73.728 51.4644 73.792 51.5924 73.92C51.7257 74.0427 51.7924 74.1973 51.7924 74.384C51.7924 74.5707 51.7257 74.728 51.5924 74.856C51.4644 74.9787 51.3017 75.04 51.1044 75.04ZM51.6564 75.568V80H50.5364V75.568H51.6564ZM54.4589 80.072C54.0963 80.072 53.7709 80.008 53.4829 79.88C53.1949 79.7467 52.9656 79.568 52.7949 79.344C52.6296 79.12 52.5389 78.872 52.5229 78.6H53.6509C53.6723 78.7707 53.7549 78.912 53.8989 79.024C54.0483 79.136 54.2323 79.192 54.4509 79.192C54.6643 79.192 54.8296 79.1493 54.9469 79.064C55.0696 78.9787 55.1309 78.8693 55.1309 78.736C55.1309 78.592 55.0563 78.4853 54.9069 78.416C54.7629 78.3413 54.5309 78.2613 54.2109 78.176C53.8803 78.096 53.6083 78.0133 53.3949 77.928C53.1869 77.8427 53.0056 77.712 52.8509 77.536C52.7016 77.36 52.6269 77.1227 52.6269 76.824C52.6269 76.5787 52.6963 76.3547 52.8349 76.152C52.9789 75.9493 53.1816 75.7893 53.4429 75.672C53.7096 75.5547 54.0216 75.496 54.3789 75.496C54.9069 75.496 55.3283 75.6293 55.6429 75.896C55.9576 76.1573 56.1309 76.512 56.1629 76.96H55.0909C55.0749 76.784 55.0003 76.6453 54.8669 76.544C54.7389 76.4373 54.5656 76.384 54.3469 76.384C54.1443 76.384 53.9869 76.4213 53.8749 76.496C53.7683 76.5707 53.7149 76.6747 53.7149 76.808C53.7149 76.9573 53.7896 77.072 53.9389 77.152C54.0883 77.2267 54.3203 77.304 54.6349 77.384C54.9549 77.464 55.2189 77.5467 55.4269 77.632C55.6349 77.7173 55.8136 77.8507 55.9629 78.032C56.1176 78.208 56.1976 78.4427 56.2029 78.736C56.2029 78.992 56.1309 79.2213 55.9869 79.424C55.8483 79.6267 55.6456 79.7867 55.3789 79.904C55.1176 80.016 54.8109 80.072 54.4589 80.072Z" fill="black"/>
<path d="M26.5 49.5C22.634 49.5 19.5 46.366 19.5 42.5L19.5 35C19.5 20.9167 30.9167 9.5 45 9.5C59.0833 9.5 70.5 20.9167 70.5 35L70.5 42.5C70.5 46.366 67.366 49.5 63.5 49.5L26.5 49.5Z" fill="#B6E3FF"/>
<g clip-path="url(#clip0_81_1882)">
<path d="M57 52.0041C57 44.1824 57.0018 36.3607 57 28.539C57 27.2043 55.9512 26.1731 54.6031 26.1695C53.6088 26.1659 52.6126 26.1695 51.6183 26.1695C51.5185 26.1695 51.4187 26.1695 51.3189 26.1695C51.2899 25.5807 51.1864 25.4868 50.6022 25.4886C50.379 25.4886 50.1558 25.4886 49.9326 25.4886C49.1706 25.4886 48.4103 25.4886 47.6246 25.4886C47.5539 24.8096 47.3198 24.2154 46.8317 23.7459C46.3436 23.2781 45.7612 23.0253 45.0807 23.0036C44.5037 22.9855 43.9775 23.1409 43.5058 23.4677C42.8054 23.9536 42.4643 24.6489 42.3717 25.4886C41.3429 25.4886 40.3395 25.4886 39.3343 25.4886C38.819 25.4886 38.6884 25.6187 38.6902 26.1695C38.5759 26.1695 38.4743 26.1695 38.3745 26.1695C37.4073 26.1695 36.4402 26.1695 35.4731 26.1713C34.0143 26.1731 33 27.179 33 28.6293C33 37.6086 33 46.588 33 55.5655C33 56.976 34.0252 57.9964 35.4477 57.9964C41.8183 57.9982 48.1889 57.9982 54.5595 57.9964C55.9766 57.9964 56.9964 56.9706 57 55.5583C57.0018 54.3736 57 53.1888 57 52.0041ZM45.01 24.266C45.4582 24.2696 45.8319 24.6416 45.8301 25.0787C45.8265 25.5284 45.4346 25.904 44.9791 25.8932C44.5364 25.8823 44.1644 25.4977 44.1753 25.0606C44.1844 24.6164 44.5564 24.2624 45.01 24.266ZM55.2817 55.412C55.2817 56.0875 55.0803 56.2897 54.4035 56.2897C48.1363 56.2897 41.8673 56.2897 35.6001 56.2897C34.9215 56.2897 34.7201 56.0893 34.7201 55.412C34.7201 46.5067 34.7201 37.6032 34.7201 28.6979C34.7201 28.0965 34.9397 27.878 35.5421 27.8762C36.6398 27.8762 37.7376 27.8816 38.8335 27.8707C39.0386 27.8689 39.1039 27.943 39.1402 28.1254C39.2617 28.7503 39.396 29.3751 39.5266 29.9982C39.6029 30.3576 39.7444 30.4822 40.1182 30.4894C40.6008 30.4966 41.0853 30.493 41.5679 30.493C44.2933 30.493 47.0168 30.493 49.7421 30.493C50.2738 30.493 50.3899 30.4045 50.5006 29.8916C50.6421 29.2325 50.7746 28.5715 50.9179 27.8725C51.7253 27.8725 52.5056 27.8725 53.2858 27.8725C53.6958 27.8725 54.1041 27.8725 54.5142 27.8762C55.0422 27.8798 55.2799 28.1145 55.2817 28.6401C55.2835 30.8994 55.2817 33.1569 55.2817 35.4161C55.2817 42.0838 55.2817 48.7479 55.2817 55.412Z" fill="#4BABE7"/>
<path d="M44.9991 40.7167C47.2781 40.7167 49.1289 38.8746 49.1325 36.6045C49.1361 34.3253 47.3053 32.4941 45.0155 32.485C42.7274 32.4742 40.8748 34.3019 40.8676 36.5738C40.8603 38.862 42.7093 40.7167 44.9991 40.7167ZM42.1577 35.7557C42.8218 35.7557 43.4768 35.7557 44.1518 35.7557C44.1518 35.0748 44.1518 34.4301 44.1518 33.7637C44.7161 33.7637 45.2568 33.7637 45.8429 33.7637C45.8429 34.4247 45.8429 35.0694 45.8429 35.7503C46.516 35.7503 47.171 35.7503 47.8424 35.7503C47.8424 36.3264 47.8424 36.8664 47.8424 37.4407C47.1801 37.4407 46.5251 37.4407 45.8501 37.4407C45.8501 38.1179 45.8501 38.7626 45.8501 39.4254C45.2858 39.4254 44.7415 39.4254 44.1663 39.4254C44.1663 38.7807 44.1663 38.1287 44.1663 37.4461C43.4804 37.4461 42.8272 37.4461 42.1577 37.4461C42.1577 36.8736 42.1577 36.3318 42.1577 35.7557Z" fill="#4BABE7"/>
<path d="M38.3328 45.1107C40.5537 45.1107 42.7746 45.1107 44.9955 45.1107C47.2345 45.1107 49.4754 45.1089 51.7145 45.1143C51.9776 45.1143 52.1917 45.0421 52.3459 44.8326C52.5745 44.5219 52.5999 44.1842 52.4366 43.8375C52.286 43.5142 52.0139 43.3986 51.6655 43.4004C47.2237 43.4022 42.7818 43.4022 38.34 43.4022C37.792 43.4022 37.4673 43.7255 37.4636 44.2583C37.4636 44.791 37.7884 45.1107 38.3328 45.1107Z" fill="#4BABE7"/>
<path d="M51.6672 47.6083C49.4554 47.6155 47.2435 47.6119 45.0317 47.6119C42.7926 47.6119 40.5518 47.6137 38.3127 47.6101C38.0551 47.6101 37.8319 47.6715 37.6704 47.8756C37.4309 48.179 37.3964 48.5203 37.5488 48.8689C37.694 49.1994 37.9661 49.3294 38.3327 49.3294C40.8239 49.3222 43.3134 49.3258 45.8047 49.3258C47.7661 49.3258 49.7257 49.324 51.6872 49.3276C51.9448 49.3276 52.168 49.2662 52.3295 49.0621C52.569 48.7587 52.6035 48.4174 52.4492 48.0706C52.3041 47.7383 52.0337 47.6083 51.6672 47.6083Z" fill="#4BABE7"/>
<path d="M51.6691 51.8271C49.4463 51.8271 47.2236 51.8271 45.0009 51.8271C42.7782 51.8271 40.5554 51.8307 38.3327 51.8235C37.9934 51.8217 37.7394 51.9301 37.5725 52.2317C37.3057 52.7157 37.5289 53.5482 38.3472 53.5446C42.7836 53.5284 47.22 53.5374 51.6564 53.5356C52.208 53.5356 52.5328 53.2177 52.5364 52.6832C52.5382 52.1504 52.2134 51.8271 51.6691 51.8271Z" fill="#4BABE7"/>
</g>
<defs>
<clipPath id="clip0_81_1882">
<rect width="24" height="35" fill="white" transform="translate(33 23)"/>
</clipPath>
</defs>
</svg>
