<svg width="89" height="89" viewBox="0 0 89 89" fill="none" xmlns="http://www.w3.org/2000/svg">
<rect width="89" height="89" rx="13" fill="white"/>
<path d="M35.1681 62.416C35.7547 62.416 36.2694 62.5307 36.7121 62.76C37.1601 62.9893 37.5041 63.3173 37.7441 63.744C37.9894 64.1653 38.1121 64.656 38.1121 65.216C38.1121 65.776 37.9894 66.2667 37.7441 66.688C37.5041 67.104 37.1601 67.4267 36.7121 67.656C36.2694 67.8853 35.7547 68 35.1681 68H33.2161V62.416H35.1681ZM35.1281 67.048C35.7147 67.048 36.1681 66.888 36.4881 66.568C36.8081 66.248 36.9681 65.7973 36.9681 65.216C36.9681 64.6347 36.8081 64.1813 36.4881 63.856C36.1681 63.5253 35.7147 63.36 35.1281 63.36H34.3361V67.048H35.1281ZM38.6624 65.768C38.6624 65.32 38.7504 64.9227 38.9264 64.576C39.1078 64.2293 39.3504 63.9627 39.6544 63.776C39.9638 63.5893 40.3078 63.496 40.6864 63.496C41.0171 63.496 41.3051 63.5627 41.5504 63.696C41.8011 63.8293 42.0011 63.9973 42.1504 64.2V63.568H43.2784V68H42.1504V67.352C42.0064 67.56 41.8064 67.7333 41.5504 67.872C41.2998 68.0053 41.0091 68.072 40.6784 68.072C40.3051 68.072 39.9638 67.976 39.6544 67.784C39.3504 67.592 39.1078 67.3227 38.9264 66.976C38.7504 66.624 38.6624 66.2213 38.6624 65.768ZM42.1504 65.784C42.1504 65.512 42.0971 65.28 41.9904 65.088C41.8838 64.8907 41.7398 64.7413 41.5584 64.64C41.3771 64.5333 41.1824 64.48 40.9744 64.48C40.7664 64.48 40.5744 64.5307 40.3984 64.632C40.2224 64.7333 40.0784 64.8827 39.9664 65.08C39.8598 65.272 39.8064 65.5013 39.8064 65.768C39.8064 66.0347 39.8598 66.2693 39.9664 66.472C40.0784 66.6693 40.2224 66.8213 40.3984 66.928C40.5798 67.0347 40.7718 67.088 40.9744 67.088C41.1824 67.088 41.3771 67.0373 41.5584 66.936C41.7398 66.8293 41.8838 66.68 41.9904 66.488C42.0971 66.2907 42.1504 66.056 42.1504 65.784ZM46.4043 64.488H45.6283V68H44.4923V64.488H43.9883V63.568H44.4923V63.344C44.4923 62.8 44.647 62.4 44.9563 62.144C45.2656 61.888 45.7323 61.768 46.3563 61.784V62.728C46.0843 62.7227 45.895 62.768 45.7883 62.864C45.6816 62.96 45.6283 63.1333 45.6283 63.384V63.568H46.4043V64.488ZM48.4341 64.488V66.632C48.4341 66.7813 48.4688 66.8907 48.5381 66.96C48.6128 67.024 48.7355 67.056 48.9061 67.056H49.4261V68H48.7221C47.7781 68 47.3061 67.5413 47.3061 66.624V64.488H46.7781V63.568H47.3061V62.472H48.4341V63.568H49.4261V64.488H48.4341ZM49.9437 65.768C49.9437 65.32 50.0317 64.9227 50.2077 64.576C50.389 64.2293 50.6317 63.9627 50.9357 63.776C51.245 63.5893 51.589 63.496 51.9677 63.496C52.2984 63.496 52.5864 63.5627 52.8317 63.696C53.0824 63.8293 53.2824 63.9973 53.4317 64.2V63.568H54.5597V68H53.4317V67.352C53.2877 67.56 53.0877 67.7333 52.8317 67.872C52.581 68.0053 52.2904 68.072 51.9597 68.072C51.5864 68.072 51.245 67.976 50.9357 67.784C50.6317 67.592 50.389 67.3227 50.2077 66.976C50.0317 66.624 49.9437 66.2213 49.9437 65.768ZM53.4317 65.784C53.4317 65.512 53.3784 65.28 53.2717 65.088C53.165 64.8907 53.021 64.7413 52.8397 64.64C52.6584 64.5333 52.4637 64.48 52.2557 64.48C52.0477 64.48 51.8557 64.5307 51.6797 64.632C51.5037 64.7333 51.3597 64.8827 51.2477 65.08C51.141 65.272 51.0877 65.5013 51.0877 65.768C51.0877 66.0347 51.141 66.2693 51.2477 66.472C51.3597 66.6693 51.5037 66.8213 51.6797 66.928C51.861 67.0347 52.053 67.088 52.2557 67.088C52.4637 67.088 52.6584 67.0373 52.8397 66.936C53.021 66.8293 53.165 66.68 53.2717 66.488C53.3784 66.2907 53.4317 66.056 53.4317 65.784ZM56.7736 64.256C56.9176 64.0213 57.1042 63.8373 57.3336 63.704C57.5682 63.5707 57.8349 63.504 58.1336 63.504V64.68H57.8376C57.4856 64.68 57.2189 64.7627 57.0376 64.928C56.8616 65.0933 56.7736 65.3813 56.7736 65.792V68H55.6536V63.568H56.7736V64.256ZM34.3315 78.936H32.1075L31.7395 80H30.5635L32.5715 74.408H33.8755L35.8835 80H34.6995L34.3315 78.936ZM34.0275 78.04L33.2195 75.704L32.4115 78.04H34.0275ZM39.09 75.504C39.618 75.504 40.0447 75.672 40.37 76.008C40.6954 76.3387 40.858 76.8027 40.858 77.4V80H39.738V77.552C39.738 77.2 39.65 76.9307 39.474 76.744C39.298 76.552 39.058 76.456 38.754 76.456C38.4447 76.456 38.1994 76.552 38.018 76.744C37.842 76.9307 37.754 77.2 37.754 77.552V80H36.634V75.568H37.754V76.12C37.9034 75.928 38.0927 75.7787 38.322 75.672C38.5567 75.56 38.8127 75.504 39.09 75.504ZM43.2271 76.488V78.632C43.2271 78.7813 43.2618 78.8907 43.3311 78.96C43.4058 79.024 43.5284 79.056 43.6991 79.056H44.2191V80H43.5151C42.5711 80 42.0991 79.5413 42.0991 78.624V76.488H41.5711V75.568H42.0991V74.472H43.2271V75.568H44.2191V76.488H43.2271ZM46.1447 76.256C46.2887 76.0213 46.4753 75.8373 46.7047 75.704C46.9393 75.5707 47.206 75.504 47.5047 75.504V76.68H47.2087C46.8567 76.68 46.59 76.7627 46.4087 76.928C46.2327 77.0933 46.1447 77.3813 46.1447 77.792V80H45.0247V75.568H46.1447V76.256ZM48.827 75.04C48.6297 75.04 48.4644 74.9787 48.331 74.856C48.203 74.728 48.139 74.5707 48.139 74.384C48.139 74.1973 48.203 74.0427 48.331 73.92C48.4644 73.792 48.6297 73.728 48.827 73.728C49.0244 73.728 49.187 73.792 49.315 73.92C49.4484 74.0427 49.515 74.1973 49.515 74.384C49.515 74.5707 49.4484 74.728 49.315 74.856C49.187 74.9787 49.0244 75.04 48.827 75.04ZM49.379 75.568V80H48.259V75.568H49.379ZM50.1976 77.768C50.1976 77.32 50.2856 76.9227 50.4616 76.576C50.6429 76.2293 50.8856 75.9627 51.1896 75.776C51.4989 75.5893 51.8429 75.496 52.2216 75.496C52.5523 75.496 52.8403 75.5627 53.0856 75.696C53.3363 75.8293 53.5363 75.9973 53.6856 76.2V75.568H54.8136V80H53.6856V79.352C53.5416 79.56 53.3416 79.7333 53.0856 79.872C52.8349 80.0053 52.5443 80.072 52.2136 80.072C51.8403 80.072 51.4989 79.976 51.1896 79.784C50.8856 79.592 50.6429 79.3227 50.4616 78.976C50.2856 78.624 50.1976 78.2213 50.1976 77.768ZM53.6856 77.784C53.6856 77.512 53.6323 77.28 53.5256 77.088C53.4189 76.8907 53.2749 76.7413 53.0936 76.64C52.9123 76.5333 52.7176 76.48 52.5096 76.48C52.3016 76.48 52.1096 76.5307 51.9336 76.632C51.7576 76.7333 51.6136 76.8827 51.5016 77.08C51.3949 77.272 51.3416 77.5013 51.3416 77.768C51.3416 78.0347 51.3949 78.2693 51.5016 78.472C51.6136 78.6693 51.7576 78.8213 51.9336 78.928C52.1149 79.0347 52.3069 79.088 52.5096 79.088C52.7176 79.088 52.9123 79.0373 53.0936 78.936C53.2749 78.8293 53.4189 78.68 53.5256 78.488C53.6323 78.2907 53.6856 78.056 53.6856 77.784ZM58.3635 75.504C58.8915 75.504 59.3181 75.672 59.6435 76.008C59.9688 76.3387 60.1315 76.8027 60.1315 77.4V80H59.0115V77.552C59.0115 77.2 58.9235 76.9307 58.7475 76.744C58.5715 76.552 58.3315 76.456 58.0275 76.456C57.7181 76.456 57.4728 76.552 57.2915 76.744C57.1155 76.9307 57.0275 77.2 57.0275 77.552V80H55.9075V75.568H57.0275V76.12C57.1768 75.928 57.3661 75.7787 57.5955 75.672C57.8301 75.56 58.0861 75.504 58.3635 75.504Z" fill="black"/>
<path d="M26 49C22.134 49 19 45.866 19 42L19 34.5C19 20.4167 30.4167 9 44.5 9C58.5833 9 70 20.4167 70 34.5L70 42C70 45.866 66.866 49 63 49L26 49Z" fill="#B6E3FF"/>
<g clip-path="url(#clip0_81_1884)">
<path d="M56.0091 49.7485C55.8471 52.52 55.6851 55.1799 55.5401 57.8398C55.4421 59.6489 55.0882 59.9959 53.2677 59.9959C52.2082 59.9959 51.1508 60.0041 50.0913 59.9938C48.8997 59.9835 48.4328 59.5415 48.3668 58.4098C48.2197 55.8511 48.0385 53.2923 47.9361 50.7336C47.9042 49.9261 47.5972 49.6081 46.7786 49.5131C44.8089 49.2839 44.7428 49.1703 44.9602 47.2744C45.0838 46.1902 45.1627 45.0936 45.3823 44.0259C45.9195 41.43 48.015 40.0856 50.6989 40.4697C51.4557 40.5792 52.2593 40.5771 53.0161 40.4718C55.7789 40.0835 57.8509 41.4094 58.4052 44.0755C58.6695 45.3435 58.7569 46.6466 58.968 47.925C59.1172 48.8295 58.7164 49.2797 57.836 49.4284C57.2498 49.5275 56.6635 49.6329 56.0091 49.7485Z" fill="#4BABE7"/>
<path d="M48.6482 38.766C45.5635 39.7325 43.8475 41.746 43.5959 44.9016C43.5128 45.9569 43.3145 47.0039 43.2442 48.0592C43.1376 49.6391 43.8752 50.6345 45.4612 50.9298C46.1327 51.0537 46.3438 51.3263 46.3715 51.9231C46.4376 53.2552 46.5058 54.5872 46.6358 55.9151C46.7062 56.6317 46.3779 56.9745 45.7149 56.9911C44.2333 57.0282 42.7475 57.0654 41.2702 56.989C40.215 56.9353 39.9357 56.165 39.8909 55.246C39.7609 52.5819 39.5989 49.9199 39.4454 47.2579C39.4369 47.0927 39.3878 46.9296 39.3516 46.7334C38.6673 46.6177 38.0107 46.5248 37.3627 46.3926C36.6293 46.2419 36.2925 45.8185 36.4034 45.0585C36.5888 43.774 36.6933 42.4771 36.9107 41.1967C37.2476 39.2265 38.42 37.7231 40.4239 37.4195C42.4149 37.118 44.504 37.2666 46.5335 37.4195C47.2881 37.4773 47.9959 38.1092 48.7249 38.4789C48.6993 38.5739 48.6738 38.6689 48.6482 38.766Z" fill="#4BABE7"/>
<path d="M37.9468 48.1521C38.0256 49.732 38.0683 51.3015 38.1983 52.8669C38.2623 53.6414 37.8956 53.9676 37.1985 53.9842C35.7873 54.0193 34.374 54.0358 32.9649 53.9821C32.0546 53.9491 31.6005 53.3956 31.5451 52.5055C31.381 49.8456 31.1763 47.1877 31.0356 44.5257C31.0015 43.869 30.8523 43.4869 30.0891 43.5324C29.8525 43.5468 29.6073 43.4436 29.3665 43.3961C28.064 43.142 27.9083 42.9644 28.0362 41.682C28.1514 40.5275 28.2665 39.369 28.4711 38.2269C28.8058 36.36 29.9101 35.0487 31.7711 34.4415C32.2998 34.268 32.9265 34.3527 33.5085 34.3568C34.4145 34.3651 35.3737 34.6005 36.2179 34.3899C37.8786 33.9748 39.0681 34.6005 40.3493 35.6434C39.957 35.7942 39.682 35.8933 39.4156 36.0048C36.9363 37.0374 35.5144 38.8341 35.2032 41.4465C35.0817 42.4647 34.9389 43.4787 34.8152 44.4947C34.5658 46.5227 35.2714 47.4892 37.3179 47.9436C37.5162 47.9849 37.708 48.0716 37.9468 48.1521Z" fill="#4BABE7"/>
<path d="M47.2647 34.5302C47.2625 32.0231 49.3047 30.024 51.8714 30.022C54.421 30.0199 56.5143 32.0438 56.5207 34.5158C56.5293 36.9816 54.4316 39.022 51.8842 39.0261C49.3218 39.0323 47.2689 37.0353 47.2647 34.5302Z" fill="#4BABE7"/>
<path d="M37.2859 32.3495C34.9048 33.5122 32.2187 32.7646 30.9909 30.6519C29.7779 28.564 30.4984 25.9247 32.628 24.6567C34.6937 23.4259 37.4543 23.9794 38.8379 25.8896C39.2535 26.4658 39.4454 26.9016 38.7888 27.5521C37.4607 28.8738 37.0941 30.5734 37.2859 32.3495Z" fill="#4BABE7"/>
<path d="M43.451 35.9429C41.2084 35.9594 39.2877 34.4208 38.872 32.2958C38.4712 30.2533 39.7034 28.1324 41.7435 27.3476C43.7964 26.5588 46.1264 27.2878 47.3244 29.0535C47.7017 29.6111 47.7721 30.0055 47.2178 30.5383C46.1498 31.5647 45.6979 32.8968 45.6126 34.3341C45.538 35.6042 45.3781 35.8004 44.0841 35.9387C43.8752 35.9615 43.6621 35.9429 43.451 35.9429Z" fill="#4BABE7"/>
</g>
<defs>
<clipPath id="clip0_81_1884">
<rect width="31" height="36" fill="white" transform="translate(28 24)"/>
</clipPath>
</defs>
</svg>
