<svg width="89" height="89" viewBox="0 0 89 89" fill="none" xmlns="http://www.w3.org/2000/svg">
<rect width="89" height="89" rx="13" fill="white"/>
<path d="M28.725 68L27.493 65.824H26.965V68H25.845V62.416H27.941C28.373 62.416 28.741 62.4933 29.045 62.648C29.349 62.7973 29.5756 63.0027 29.725 63.264C29.8796 63.52 29.957 63.808 29.957 64.128C29.957 64.496 29.8503 64.8293 29.637 65.128C29.4236 65.4213 29.1063 65.624 28.685 65.736L30.021 68H28.725ZM26.965 64.984H27.901C28.205 64.984 28.4316 64.912 28.581 64.768C28.7303 64.6187 28.805 64.4133 28.805 64.152C28.805 63.896 28.7303 63.6987 28.581 63.56C28.4316 63.416 28.205 63.344 27.901 63.344H26.965V64.984ZM35.09 65.688C35.09 65.848 35.0793 65.992 35.058 66.12H31.818C31.8446 66.44 31.9566 66.6907 32.154 66.872C32.3513 67.0533 32.594 67.144 32.882 67.144C33.298 67.144 33.594 66.9653 33.77 66.608H34.978C34.85 67.0347 34.6046 67.3867 34.242 67.664C33.8793 67.936 33.434 68.072 32.906 68.072C32.4793 68.072 32.0953 67.9787 31.754 67.792C31.418 67.6 31.154 67.3307 30.962 66.984C30.7753 66.6373 30.682 66.2373 30.682 65.784C30.682 65.3253 30.7753 64.9227 30.962 64.576C31.1486 64.2293 31.41 63.9627 31.746 63.776C32.082 63.5893 32.4686 63.496 32.906 63.496C33.3273 63.496 33.7033 63.5867 34.034 63.768C34.37 63.9493 34.6286 64.208 34.81 64.544C34.9966 64.8747 35.09 65.256 35.09 65.688ZM33.93 65.368C33.9246 65.08 33.8206 64.8507 33.618 64.68C33.4153 64.504 33.1673 64.416 32.874 64.416C32.5966 64.416 32.362 64.5013 32.17 64.672C31.9833 64.8373 31.8686 65.0693 31.826 65.368H33.93ZM37.6435 63.496C37.9741 63.496 38.2648 63.5627 38.5155 63.696C38.7661 63.824 38.9635 63.992 39.1075 64.2V63.568H40.2355V68.032C40.2355 68.4427 40.1528 68.808 39.9875 69.128C39.8221 69.4533 39.5741 69.7093 39.2435 69.896C38.9128 70.088 38.5128 70.184 38.0435 70.184C37.4141 70.184 36.8968 70.0373 36.4915 69.744C36.0915 69.4507 35.8648 69.0507 35.8115 68.544H36.9235C36.9821 68.7467 37.1075 68.9067 37.2995 69.024C37.4968 69.1467 37.7341 69.208 38.0115 69.208C38.3368 69.208 38.6008 69.1093 38.8035 68.912C39.0061 68.72 39.1075 68.4267 39.1075 68.032V67.344C38.9635 67.552 38.7635 67.7253 38.5075 67.864C38.2568 68.0027 37.9688 68.072 37.6435 68.072C37.2701 68.072 36.9288 67.976 36.6195 67.784C36.3101 67.592 36.0648 67.3227 35.8835 66.976C35.7075 66.624 35.6195 66.2213 35.6195 65.768C35.6195 65.32 35.7075 64.9227 35.8835 64.576C36.0648 64.2293 36.3075 63.9627 36.6115 63.776C36.9208 63.5893 37.2648 63.496 37.6435 63.496ZM39.1075 65.784C39.1075 65.512 39.0541 65.28 38.9475 65.088C38.8408 64.8907 38.6968 64.7413 38.5155 64.64C38.3341 64.5333 38.1395 64.48 37.9315 64.48C37.7235 64.48 37.5315 64.5307 37.3555 64.632C37.1795 64.7333 37.0355 64.8827 36.9235 65.08C36.8168 65.272 36.7635 65.5013 36.7635 65.768C36.7635 66.0347 36.8168 66.2693 36.9235 66.472C37.0355 66.6693 37.1795 66.8213 37.3555 66.928C37.5368 67.0347 37.7288 67.088 37.9315 67.088C38.1395 67.088 38.3341 67.0373 38.5155 66.936C38.6968 66.8293 38.8408 66.68 38.9475 66.488C39.0541 66.2907 39.1075 66.056 39.1075 65.784ZM41.8973 63.04C41.7 63.04 41.5347 62.9787 41.4013 62.856C41.2733 62.728 41.2093 62.5707 41.2093 62.384C41.2093 62.1973 41.2733 62.0427 41.4013 61.92C41.5347 61.792 41.7 61.728 41.8973 61.728C42.0947 61.728 42.2573 61.792 42.3853 61.92C42.5187 62.0427 42.5853 62.1973 42.5853 62.384C42.5853 62.5707 42.5187 62.728 42.3853 62.856C42.2573 62.9787 42.0947 63.04 41.8973 63.04ZM42.4493 63.568V68H41.3293V63.568H42.4493ZM45.2519 68.072C44.8892 68.072 44.5639 68.008 44.2759 67.88C43.9879 67.7467 43.7586 67.568 43.5879 67.344C43.4226 67.12 43.3319 66.872 43.3159 66.6H44.4439C44.4652 66.7707 44.5479 66.912 44.6919 67.024C44.8412 67.136 45.0252 67.192 45.2439 67.192C45.4572 67.192 45.6226 67.1493 45.7399 67.064C45.8626 66.9787 45.9239 66.8693 45.9239 66.736C45.9239 66.592 45.8492 66.4853 45.6999 66.416C45.5559 66.3413 45.3239 66.2613 45.0039 66.176C44.6732 66.096 44.4012 66.0133 44.1879 65.928C43.9799 65.8427 43.7986 65.712 43.6439 65.536C43.4946 65.36 43.4199 65.1227 43.4199 64.824C43.4199 64.5787 43.4892 64.3547 43.6279 64.152C43.7719 63.9493 43.9746 63.7893 44.2359 63.672C44.5026 63.5547 44.8146 63.496 45.1719 63.496C45.6999 63.496 46.1212 63.6293 46.4359 63.896C46.7506 64.1573 46.9239 64.512 46.9559 64.96H45.8839C45.8679 64.784 45.7932 64.6453 45.6599 64.544C45.5319 64.4373 45.3586 64.384 45.1399 64.384C44.9372 64.384 44.7799 64.4213 44.6679 64.496C44.5612 64.5707 44.5079 64.6747 44.5079 64.808C44.5079 64.9573 44.5826 65.072 44.7319 65.152C44.8812 65.2267 45.1132 65.304 45.4279 65.384C45.7479 65.464 46.0119 65.5467 46.2199 65.632C46.4279 65.7173 46.6066 65.8507 46.7559 66.032C46.9106 66.208 46.9906 66.4427 46.9959 66.736C46.9959 66.992 46.9239 67.2213 46.7799 67.424C46.6412 67.6267 46.4386 67.7867 46.1719 67.904C45.9106 68.016 45.6039 68.072 45.2519 68.072ZM49.2193 64.488V66.632C49.2193 66.7813 49.2539 66.8907 49.3233 66.96C49.3979 67.024 49.5206 67.056 49.6913 67.056H50.2113V68H49.5073C48.5633 68 48.0913 67.5413 48.0913 66.624V64.488H47.5633V63.568H48.0913V62.472H49.2193V63.568H50.2113V64.488H49.2193ZM52.1368 64.256C52.2808 64.0213 52.4675 63.8373 52.6968 63.704C52.9315 63.5707 53.1982 63.504 53.4968 63.504V64.68H53.2008C52.8488 64.68 52.5822 64.7627 52.4008 64.928C52.2248 65.0933 52.1368 65.3813 52.1368 65.792V68H51.0168V63.568H52.1368V64.256ZM53.9632 65.768C53.9632 65.32 54.0512 64.9227 54.2272 64.576C54.4086 64.2293 54.6512 63.9627 54.9552 63.776C55.2646 63.5893 55.6086 63.496 55.9872 63.496C56.3179 63.496 56.6059 63.5627 56.8512 63.696C57.1019 63.8293 57.3019 63.9973 57.4512 64.2V63.568H58.5792V68H57.4512V67.352C57.3072 67.56 57.1072 67.7333 56.8512 67.872C56.6006 68.0053 56.3099 68.072 55.9792 68.072C55.6059 68.072 55.2646 67.976 54.9552 67.784C54.6512 67.592 54.4086 67.3227 54.2272 66.976C54.0512 66.624 53.9632 66.2213 53.9632 65.768ZM57.4512 65.784C57.4512 65.512 57.3979 65.28 57.2912 65.088C57.1846 64.8907 57.0406 64.7413 56.8592 64.64C56.6779 64.5333 56.4832 64.48 56.2752 64.48C56.0672 64.48 55.8752 64.5307 55.6992 64.632C55.5232 64.7333 55.3792 64.8827 55.2672 65.08C55.1606 65.272 55.1072 65.5013 55.1072 65.768C55.1072 66.0347 55.1606 66.2693 55.2672 66.472C55.3792 66.6693 55.5232 66.8213 55.6992 66.928C55.8806 67.0347 56.0726 67.088 56.2752 67.088C56.4832 67.088 56.6779 67.0373 56.8592 66.936C57.0406 66.8293 57.1846 66.68 57.2912 66.488C57.3979 66.2907 57.4512 66.056 57.4512 65.784ZM61.3691 68.072C61.0064 68.072 60.6811 68.008 60.3931 67.88C60.1051 67.7467 59.8758 67.568 59.7051 67.344C59.5398 67.12 59.4491 66.872 59.4331 66.6H60.5611C60.5824 66.7707 60.6651 66.912 60.8091 67.024C60.9584 67.136 61.1424 67.192 61.3611 67.192C61.5744 67.192 61.7398 67.1493 61.8571 67.064C61.9798 66.9787 62.0411 66.8693 62.0411 66.736C62.0411 66.592 61.9664 66.4853 61.8171 66.416C61.6731 66.3413 61.4411 66.2613 61.1211 66.176C60.7904 66.096 60.5184 66.0133 60.3051 65.928C60.0971 65.8427 59.9158 65.712 59.7611 65.536C59.6118 65.36 59.5371 65.1227 59.5371 64.824C59.5371 64.5787 59.6064 64.3547 59.7451 64.152C59.8891 63.9493 60.0918 63.7893 60.3531 63.672C60.6198 63.5547 60.9318 63.496 61.2891 63.496C61.8171 63.496 62.2384 63.6293 62.5531 63.896C62.8678 64.1573 63.0411 64.512 63.0731 64.96H62.0011C61.9851 64.784 61.9104 64.6453 61.7771 64.544C61.6491 64.4373 61.4758 64.384 61.2571 64.384C61.0544 64.384 60.8971 64.4213 60.7851 64.496C60.6784 64.5707 60.6251 64.6747 60.6251 64.808C60.6251 64.9573 60.6998 65.072 60.8491 65.152C60.9984 65.2267 61.2304 65.304 61.5451 65.384C61.8651 65.464 62.1291 65.5467 62.3371 65.632C62.5451 65.7173 62.7238 65.8507 62.8731 66.032C63.0278 66.208 63.1078 66.4427 63.1131 66.736C63.1131 66.992 63.0411 67.2213 62.8971 67.424C62.7584 67.6267 62.5558 67.7867 62.2891 67.904C62.0278 68.016 61.7211 68.072 61.3691 68.072ZM64.6005 63.04C64.4031 63.04 64.2378 62.9787 64.1045 62.856C63.9765 62.728 63.9125 62.5707 63.9125 62.384C63.9125 62.1973 63.9765 62.0427 64.1045 61.92C64.2378 61.792 64.4031 61.728 64.6005 61.728C64.7978 61.728 64.9605 61.792 65.0885 61.92C65.2218 62.0427 65.2885 62.1973 65.2885 62.384C65.2885 62.5707 65.2218 62.728 65.0885 62.856C64.9605 62.9787 64.7978 63.04 64.6005 63.04ZM65.1525 63.568V68H64.0325V63.568H65.1525ZM38.2313 80L36.1993 77.512V80H35.0793V74.416H36.1993V76.92L38.2313 74.416H39.5833L37.2793 77.184L39.6473 80H38.2313ZM41.504 74.08V80H40.384V74.08H41.504ZM43.1786 75.04C42.9813 75.04 42.8159 74.9787 42.6826 74.856C42.5546 74.728 42.4906 74.5707 42.4906 74.384C42.4906 74.1973 42.5546 74.0427 42.6826 73.92C42.8159 73.792 42.9813 73.728 43.1786 73.728C43.3759 73.728 43.5386 73.792 43.6666 73.92C43.7999 74.0427 43.8666 74.1973 43.8666 74.384C43.8666 74.5707 43.7999 74.728 43.6666 74.856C43.5386 74.9787 43.3759 75.04 43.1786 75.04ZM43.7306 75.568V80H42.6106V75.568H43.7306ZM47.2932 75.504C47.8212 75.504 48.2478 75.672 48.5732 76.008C48.8985 76.3387 49.0612 76.8027 49.0612 77.4V80H47.9412V77.552C47.9412 77.2 47.8532 76.9307 47.6772 76.744C47.5012 76.552 47.2612 76.456 46.9572 76.456C46.6478 76.456 46.4025 76.552 46.2212 76.744C46.0452 76.9307 45.9572 77.2 45.9572 77.552V80H44.8372V75.568H45.9572V76.12C46.1065 75.928 46.2958 75.7787 46.5252 75.672C46.7598 75.56 47.0158 75.504 47.2932 75.504ZM50.6942 75.04C50.4969 75.04 50.3316 74.9787 50.1982 74.856C50.0702 74.728 50.0062 74.5707 50.0062 74.384C50.0062 74.1973 50.0702 74.0427 50.1982 73.92C50.3316 73.792 50.4969 73.728 50.6942 73.728C50.8916 73.728 51.0542 73.792 51.1822 73.92C51.3156 74.0427 51.3822 74.1973 51.3822 74.384C51.3822 74.5707 51.3156 74.728 51.1822 74.856C51.0542 74.9787 50.8916 75.04 50.6942 75.04ZM51.2462 75.568V80H50.1262V75.568H51.2462ZM54.9768 80L53.4728 78.112V80H52.3528V74.08H53.4728V77.448L54.9608 75.568H56.4168L54.4648 77.792L56.4328 80H54.9768Z" fill="black"/>
<path d="M26 49C22.134 49 19 45.866 19 42L19 34.5C19 20.4167 30.4167 9 44.5 9C58.5833 9 70 20.4167 70 34.5L70 42C70 45.866 66.866 49 63 49L26 49Z" fill="#B6E3FF"/>
<path d="M53.8004 56.9995C46.7341 56.9995 39.6698 56.9995 32.6035 56.9995C32.4043 56.5732 32.0342 56.145 32.0322 55.7167C32 46.526 32.0121 37.3354 32 28.1447C31.998 27.2138 32.4043 26.7956 33.3175 26.8117C34.1342 26.8237 34.9508 26.8137 35.8198 26.8137C35.8198 25.9692 35.8178 25.2715 35.8198 24.5758C35.8258 23.2508 36.0712 23.0015 37.3847 23.0015C43.7772 22.9995 50.1697 22.9995 56.5622 23.0015C57.8495 23.0015 58.119 23.2709 58.1231 24.5919C58.1311 27.1897 58.1231 29.7874 58.1291 32.3852C58.1291 32.719 58.1633 33.0527 58.1995 33.6981C59.169 32.6868 59.8932 31.9067 60.6455 31.1527C61.5144 30.28 62.5684 30.0106 63.7612 30.3042C64.8977 30.5836 65.4569 31.4844 66 32.3993C66 32.9984 66 33.5996 66 34.1988C65.473 34.8643 64.9963 35.5821 64.4089 36.1893C62.5564 38.0974 60.6354 39.9392 58.8009 41.8654C58.4389 42.2474 58.1693 42.8808 58.1573 43.4035C58.0929 46.1279 58.1331 48.8564 58.1251 51.5828C58.1211 52.8797 57.8193 53.1732 56.5501 53.1813C55.8038 53.1853 55.0556 53.1813 54.4903 53.1813C54.2349 54.5827 54.0176 55.7911 53.8004 56.9995ZM55.9808 44.7889C55.4076 45.2191 54.9852 45.6997 54.4561 45.8987C53.1547 46.3913 51.811 46.7854 50.4694 47.1594C49.3188 47.4811 48.7234 46.8437 49.0553 45.6735C49.345 44.6521 49.6185 43.6146 50.0309 42.6395C50.3568 41.8694 50.7792 41.0893 51.3384 40.478C52.6418 39.0545 54.082 37.7556 55.3995 36.3441C55.7415 35.9782 56.007 35.3871 56.017 34.8925C56.0734 31.9288 56.0472 28.9631 56.0432 25.9974C56.0432 25.6797 56.009 25.362 55.9909 25.0504C49.9122 25.0504 43.9341 25.0504 37.9218 25.0504C37.9218 33.7504 37.9218 42.3922 37.9218 51.0902C43.9683 51.0902 49.9444 51.0902 55.9829 51.0902C55.9808 48.9931 55.9808 46.9483 55.9808 44.7889ZM34.0718 28.8927C34.0718 37.6109 34.0718 46.2787 34.0718 54.9265C40.1545 54.9265 46.1628 54.9265 52.1671 54.9265C52.1671 54.3294 52.1671 53.8086 52.1671 53.1813C51.7628 53.1813 51.4067 53.1813 51.0487 53.1813C46.553 53.1813 42.0574 53.1813 37.5597 53.1813C36.0672 53.1813 35.8198 52.936 35.8198 51.4541C35.8178 44.3264 35.8198 37.1967 35.8198 30.0689C35.8198 29.6849 35.8198 29.3009 35.8198 28.8947C35.15 28.8927 34.631 28.8927 34.0718 28.8927ZM54.7538 42.8627C54.9047 42.7501 55.0757 42.6535 55.2104 42.5188C57.9662 39.7683 60.7239 37.0177 63.4676 34.2551C64.238 33.479 64.1374 32.4777 63.2322 32.3027C62.8219 32.2243 62.2043 32.5098 61.8765 32.8315C59.1389 35.5057 56.4455 38.2261 53.7441 40.9365C53.5892 41.0913 53.4705 41.2843 53.3036 41.4994C53.7763 41.9458 54.2128 42.354 54.7538 42.8627ZM51.4932 44.7305C52.1631 44.4953 52.5714 44.3505 52.9737 44.2098C52.6518 43.8077 52.3944 43.49 52.0343 43.0396C51.8352 43.6649 51.7024 44.0791 51.4932 44.7305Z" fill="#4BABE7"/>
<path d="M46.897 28.8503C48.5585 28.8503 50.22 28.8564 51.8795 28.8483C52.6539 28.8443 53.3619 29.0253 53.3358 29.9361C53.3116 30.7806 52.6177 30.9394 51.8895 30.9374C48.6008 30.9314 45.312 30.9354 42.0232 30.9334C41.3011 30.9334 40.6273 30.7826 40.6252 29.8959C40.6232 29.0112 41.285 28.8483 42.0132 28.8483C43.6405 28.8503 45.2677 28.8503 46.897 28.8503Z" fill="#4BABE7"/>
<path d="M46.9433 36.3802C45.2778 36.3802 43.6103 36.3742 41.9448 36.3822C41.2327 36.3862 40.6474 36.1872 40.6233 35.3708C40.5991 34.5264 41.1945 34.3474 41.9046 34.3474C45.2698 34.3514 48.635 34.3555 52.0002 34.3434C52.7163 34.3414 53.3378 34.5324 53.3358 35.3326C53.3338 36.1751 52.6982 36.3902 51.9378 36.3822C50.2763 36.3681 48.6088 36.3802 46.9433 36.3802Z" fill="#4BABE7"/>
<path d="M44.793 41.7989C43.8275 41.7989 42.86 41.7868 41.8945 41.8029C41.1683 41.8149 40.6051 41.6099 40.6212 40.7734C40.6353 40.0034 41.1623 39.7943 41.8502 39.7983C43.8154 39.8083 45.7806 39.8083 47.7478 39.7983C48.4418 39.7943 48.9608 40.0255 48.9769 40.7815C48.993 41.5375 48.4961 41.8089 47.7921 41.8009C46.7924 41.7908 45.7927 41.7989 44.793 41.7989Z" fill="#4BABE7"/>
<path d="M44.0065 47.2477C43.2401 47.2477 42.4537 47.3543 41.7175 47.2055C41.3091 47.1231 40.76 46.6606 40.6795 46.2826C40.5488 45.6553 41.0577 45.2411 41.7175 45.2311C43.2824 45.2069 44.8473 45.215 46.4122 45.225C47.076 45.229 47.5266 45.595 47.5286 46.2505C47.5306 46.918 47.07 47.2477 46.4042 47.2518C45.6056 47.2558 44.8071 47.2538 44.0065 47.2538C44.0065 47.2497 44.0065 47.2477 44.0065 47.2477Z" fill="#4BABE7"/>
</svg>
