<svg xmlns="http://www.w3.org/2000/svg" xmlns:xlink="http://www.w3.org/1999/xlink" viewBox="0 0 51 70.57"><defs><style>.cls-1{fill:none;}.cls-2{fill:#b9e1f8;}.cls-3{clip-path:url(#clip-path);}.cls-4{fill:#51aadf;}</style><clipPath id="clip-path"><rect class="cls-1" x="15.5" y="14.5" width="20" height="33"/></clipPath></defs><g id="Layer_2" data-name="Layer 2"><g id="Layer_1-2" data-name="Layer 1"><path d="M8.22,58.5,7,56.32H6.46V58.5H5.34V52.92h2.1a2.32,2.32,0,0,1,1.1.23,1.46,1.46,0,0,1,.68.61,1.63,1.63,0,0,1,.24.87,1.7,1.7,0,0,1-.32,1,1.73,1.73,0,0,1-1,.61L9.52,58.5Zm-1.76-3H7.4a1,1,0,0,0,.68-.21.84.84,0,0,0,.22-.62.77.77,0,0,0-.22-.59,1,1,0,0,0-.68-.22H6.46Zm8.13.71a2.81,2.81,0,0,1,0,.43H11.32a1.09,1.09,0,0,0,.33.75,1,1,0,0,0,.73.27.91.91,0,0,0,.89-.53h1.21a2.06,2.06,0,0,1-.74,1,2.11,2.11,0,0,1-1.33.41,2.37,2.37,0,0,1-1.16-.28,2.05,2.05,0,0,1-.79-.81,2.53,2.53,0,0,1-.28-1.2,2.56,2.56,0,0,1,.28-1.2,1.91,1.91,0,0,1,.79-.8,2.5,2.5,0,0,1,2.28,0,1.87,1.87,0,0,1,.78.77A2.28,2.28,0,0,1,14.59,56.19Zm-1.16-.32a.9.9,0,0,0-.31-.69,1.07,1.07,0,0,0-.75-.26,1,1,0,0,0-.7.25,1.09,1.09,0,0,0-.34.7ZM17.14,54a1.81,1.81,0,0,1,.88.2,1.52,1.52,0,0,1,.59.5v-.63h1.13v4.46a2.44,2.44,0,0,1-.25,1.1,1.91,1.91,0,0,1-.75.77,2.37,2.37,0,0,1-1.2.28A2.54,2.54,0,0,1,16,60.24a1.61,1.61,0,0,1-.68-1.2h1.11a.79.79,0,0,0,.38.48,1.26,1.26,0,0,0,.71.19,1.06,1.06,0,0,0,.79-.3,1.12,1.12,0,0,0,.31-.88v-.69a1.69,1.69,0,0,1-.6.52,1.75,1.75,0,0,1-.87.21,1.83,1.83,0,0,1-1-.29,2,2,0,0,1-.74-.8,2.79,2.79,0,0,1-.26-1.21,2.64,2.64,0,0,1,.26-1.19,2,2,0,0,1,.73-.8A1.92,1.92,0,0,1,17.14,54Zm1.47,2.28a1.46,1.46,0,0,0-.16-.69,1.1,1.1,0,0,0-.43-.45,1.14,1.14,0,0,0-.59-.16,1.1,1.1,0,0,0-.57.15,1.19,1.19,0,0,0-.44.45,1.46,1.46,0,0,0-.16.69,1.57,1.57,0,0,0,.16.7,1.3,1.3,0,0,0,.44.46,1.17,1.17,0,0,0,.57.16,1.12,1.12,0,0,0,1-.6A1.55,1.55,0,0,0,18.61,56.28Zm2.79-2.74a.71.71,0,0,1-.5-.18.65.65,0,0,1-.19-.48.6.6,0,0,1,.19-.46.68.68,0,0,1,.5-.19.67.67,0,0,1,.49.19.61.61,0,0,1,.2.46.66.66,0,0,1-.2.48A.71.71,0,0,1,21.4,53.54Zm.55.53V58.5H20.83V54.07Zm2.8,4.5a2.3,2.3,0,0,1-1-.19,1.7,1.7,0,0,1-.69-.54,1.27,1.27,0,0,1-.27-.74h1.12a.66.66,0,0,0,.25.42.86.86,0,0,0,.55.17.8.8,0,0,0,.5-.13.37.37,0,0,0,.18-.32.33.33,0,0,0-.22-.32,3,3,0,0,0-.7-.24,6.71,6.71,0,0,1-.81-.25,1.63,1.63,0,0,1-.55-.39,1.09,1.09,0,0,1-.22-.72,1.16,1.16,0,0,1,.21-.67,1.43,1.43,0,0,1,.61-.48,2.21,2.21,0,0,1,.93-.17,1.9,1.9,0,0,1,1.27.4,1.48,1.48,0,0,1,.52,1.06H25.38a.57.57,0,0,0-.22-.42.83.83,0,0,0-.52-.16.8.8,0,0,0-.47.12.34.34,0,0,0-.16.31.36.36,0,0,0,.22.34,3.33,3.33,0,0,0,.7.23,6.84,6.84,0,0,1,.79.25,1.41,1.41,0,0,1,.54.4,1.12,1.12,0,0,1,.24.71,1.17,1.17,0,0,1-.22.68,1.29,1.29,0,0,1-.61.48A2.19,2.19,0,0,1,24.75,58.57Zm4-3.58v2.14a.45.45,0,0,0,.1.33.61.61,0,0,0,.37.1h.52v.94H29a1.24,1.24,0,0,1-1.42-1.38V55h-.53v-.92h.53V53h1.13v1.1h1V55Zm2.92-.23a1.58,1.58,0,0,1,.56-.56A1.61,1.61,0,0,1,33,54v1.18h-.3a.93.93,0,0,0-1.06,1.11V58.5H30.52V54.07h1.12Zm1.82,1.51a2.52,2.52,0,0,1,.27-1.19A1.93,1.93,0,0,1,35.49,54a1.68,1.68,0,0,1,.86.2,1.75,1.75,0,0,1,.6.5v-.63h1.13V58.5H37v-.65a1.62,1.62,0,0,1-.6.52,1.75,1.75,0,0,1-.87.2,1.81,1.81,0,0,1-1-.29,2,2,0,0,1-.73-.8A2.66,2.66,0,0,1,33.46,56.27Zm3.49,0a1.35,1.35,0,0,0-.16-.69,1.15,1.15,0,0,0-1-.61,1.17,1.17,0,0,0-.58.15,1.1,1.1,0,0,0-.43.45,1.35,1.35,0,0,0-.16.69,1.45,1.45,0,0,0,.16.7,1.19,1.19,0,0,0,.43.46,1.18,1.18,0,0,0,.58.16,1.19,1.19,0,0,0,.58-.15,1.24,1.24,0,0,0,.43-.45A1.43,1.43,0,0,0,37,56.28Zm3.92,2.29a2.38,2.38,0,0,1-1-.19,1.74,1.74,0,0,1-.68-.54,1.35,1.35,0,0,1-.28-.74h1.13a.62.62,0,0,0,.25.42.84.84,0,0,0,.55.17.82.82,0,0,0,.5-.13.37.37,0,0,0,.18-.32.33.33,0,0,0-.22-.32,3.23,3.23,0,0,0-.7-.24,6.71,6.71,0,0,1-.81-.25,1.63,1.63,0,0,1-.55-.39,1.09,1.09,0,0,1-.22-.72,1.16,1.16,0,0,1,.21-.67,1.46,1.46,0,0,1,.6-.48,2.29,2.29,0,0,1,.94-.17,1.85,1.85,0,0,1,1.26.4,1.41,1.41,0,0,1,.52,1.06H41.5a.57.57,0,0,0-.22-.42.83.83,0,0,0-.52-.16.78.78,0,0,0-.47.12.34.34,0,0,0-.16.31.36.36,0,0,0,.22.34,3.33,3.33,0,0,0,.7.23,6.84,6.84,0,0,1,.79.25,1.38,1.38,0,0,1,.53.4,1,1,0,0,1,.24.71,1.16,1.16,0,0,1-.21.68,1.29,1.29,0,0,1-.61.48A2.19,2.19,0,0,1,40.87,58.57Zm3.23-5a.73.73,0,0,1-.5-.18.69.69,0,0,1-.19-.48.64.64,0,0,1,.19-.46.69.69,0,0,1,.5-.19.66.66,0,0,1,.49.19.61.61,0,0,1,.2.46.66.66,0,0,1-.2.48A.69.69,0,0,1,44.1,53.54Zm.55.53V58.5H43.53V54.07ZM4.28,64.92v.9H2.79V70.5H1.67V65.82H.18v-.9Zm4.93,3.27a2.81,2.81,0,0,1,0,.43H5.94a1.1,1.1,0,0,0,.34.75,1,1,0,0,0,.73.27.89.89,0,0,0,.88-.53H9.1a2,2,0,0,1-.73,1A2.14,2.14,0,0,1,7,70.57a2.3,2.3,0,0,1-1.15-.28,2,2,0,0,1-.79-.81,2.42,2.42,0,0,1-.28-1.2,2.45,2.45,0,0,1,.28-1.2,1.83,1.83,0,0,1,.78-.8A2.32,2.32,0,0,1,7,66a2.33,2.33,0,0,1,1.13.27,1.9,1.9,0,0,1,.77.77A2.28,2.28,0,0,1,9.21,68.19Zm-1.16-.32a.84.84,0,0,0-.31-.69A1.06,1.06,0,0,0,7,66.92a1,1,0,0,0-.71.25,1.14,1.14,0,0,0-.34.7Zm3.1-3.29V70.5H10V64.58Zm5.23,3.61a2.81,2.81,0,0,1,0,.43H13.11a1.09,1.09,0,0,0,.33.75,1,1,0,0,0,.73.27.91.91,0,0,0,.89-.53h1.21a2.06,2.06,0,0,1-.74,1,2.11,2.11,0,0,1-1.33.41A2.34,2.34,0,0,1,13,70.29a2.05,2.05,0,0,1-.79-.81,2.42,2.42,0,0,1-.28-1.2,2.45,2.45,0,0,1,.28-1.2,1.91,1.91,0,0,1,.79-.8,2.5,2.5,0,0,1,2.28,0,1.87,1.87,0,0,1,.78.77A2.28,2.28,0,0,1,16.38,68.19Zm-1.16-.32a.9.9,0,0,0-.31-.69,1.09,1.09,0,0,0-.75-.26,1,1,0,0,0-.7.25,1.09,1.09,0,0,0-.34.7ZM22.7,66a1.75,1.75,0,0,1,1.31.51,1.84,1.84,0,0,1,.51,1.39v2.6H23.4V68.05a1.08,1.08,0,0,0-.27-.79.91.91,0,0,0-.72-.28,1,1,0,0,0-.73.28,1.12,1.12,0,0,0-.26.79V70.5H20.3V68.05a1.12,1.12,0,0,0-.26-.79.94.94,0,0,0-.72-.28,1,1,0,0,0-.74.28,1.08,1.08,0,0,0-.26.79V70.5H17.2V66.07h1.12v.53a1.51,1.51,0,0,1,.55-.44,1.87,1.87,0,0,1,.75-.16,1.89,1.89,0,0,1,.93.23,1.51,1.51,0,0,1,.63.62,1.58,1.58,0,0,1,.62-.61A1.78,1.78,0,0,1,22.7,66Zm7,2.19a2.81,2.81,0,0,1,0,.43H26.43a1.09,1.09,0,0,0,.33.75,1,1,0,0,0,.73.27.91.91,0,0,0,.89-.53h1.21a2.06,2.06,0,0,1-.74,1,2.11,2.11,0,0,1-1.33.41,2.34,2.34,0,0,1-1.16-.28,2.05,2.05,0,0,1-.79-.81,2.42,2.42,0,0,1-.28-1.2,2.45,2.45,0,0,1,.28-1.2,1.91,1.91,0,0,1,.79-.8,2.5,2.5,0,0,1,2.28,0,1.87,1.87,0,0,1,.78.77A2.28,2.28,0,0,1,29.7,68.19Zm-1.16-.32a.9.9,0,0,0-.31-.69,1.09,1.09,0,0,0-.75-.26,1,1,0,0,0-.7.25,1.09,1.09,0,0,0-.34.7Zm1.69.4a2.64,2.64,0,0,1,.26-1.19A2,2,0,0,1,32.26,66a1.8,1.8,0,0,1,.82.19,1.65,1.65,0,0,1,.63.49v-2.1h1.13V70.5H33.71v-.66a1.45,1.45,0,0,1-.59.53,1.75,1.75,0,0,1-.87.2,1.83,1.83,0,0,1-1-.29,2,2,0,0,1-.74-.8A2.79,2.79,0,0,1,30.23,68.27Zm3.49,0a1.46,1.46,0,0,0-.16-.69,1.06,1.06,0,0,0-.44-.45,1.08,1.08,0,0,0-.58-.16,1.11,1.11,0,0,0-1,.6,1.46,1.46,0,0,0-.16.69,1.57,1.57,0,0,0,.16.7,1.27,1.27,0,0,0,.43.46,1.24,1.24,0,0,0,.58.16,1.17,1.17,0,0,0,.58-.15,1.19,1.19,0,0,0,.44-.45A1.55,1.55,0,0,0,33.72,68.28Zm2.79-2.74a.71.71,0,0,1-.5-.18.65.65,0,0,1-.19-.48.6.6,0,0,1,.19-.46.68.68,0,0,1,.5-.19.63.63,0,0,1,.48.19.58.58,0,0,1,.2.46.62.62,0,0,1-.2.48A.66.66,0,0,1,36.51,65.54Zm.55.53V70.5H35.94V66.07Zm.82,2.21a2.47,2.47,0,0,1,.28-1.2,2,2,0,0,1,.77-.8A2.24,2.24,0,0,1,40.07,66a2.14,2.14,0,0,1,1.36.41,2,2,0,0,1,.73,1.15H41a.78.78,0,0,0-.33-.44.85.85,0,0,0-.56-.17.94.94,0,0,0-.76.35,1.51,1.51,0,0,0-.28,1,1.54,1.54,0,0,0,.28,1,.93.93,0,0,0,.76.34A.85.85,0,0,0,41,69h1.21a2.11,2.11,0,0,1-.73,1.15,2.16,2.16,0,0,1-1.36.42,2.24,2.24,0,0,1-1.14-.28,2,2,0,0,1-.77-.8A2.46,2.46,0,0,1,37.88,68.28Zm4.81,0A2.64,2.64,0,0,1,43,67.08a2,2,0,0,1,.73-.8,1.94,1.94,0,0,1,1-.28,1.8,1.8,0,0,1,1.47.7v-.63h1.13V70.5H46.18v-.65a1.8,1.8,0,0,1-.6.52,1.75,1.75,0,0,1-.87.2,1.84,1.84,0,0,1-1-.29,2.18,2.18,0,0,1-.73-.8A2.79,2.79,0,0,1,42.69,68.27Zm3.49,0a1.46,1.46,0,0,0-.16-.69,1.1,1.1,0,0,0-.43-.45A1.14,1.14,0,0,0,45,67a1.1,1.1,0,0,0-.57.15,1.19,1.19,0,0,0-.44.45,1.46,1.46,0,0,0-.16.69A1.57,1.57,0,0,0,44,69a1.3,1.3,0,0,0,.44.46,1.17,1.17,0,0,0,.57.16,1.12,1.12,0,0,0,1-.6A1.55,1.55,0,0,0,46.18,68.28Zm3.34-3.7V70.5H48.4V64.58Z"/><path class="cls-2" d="M7,40a7,7,0,0,1-7-7V25.5A25.5,25.5,0,0,1,25.5,0h0A25.5,25.5,0,0,1,51,25.5V33a7,7,0,0,1-7,7Z"/><g class="cls-3"><path class="cls-4" d="M15.5,30.9V25.37c0-1.79,0-3.58,0-5.36,0-.94,0-1.88,0-2.82A2.55,2.55,0,0,1,16.82,15a3.13,3.13,0,0,1,1.36-.48,10.31,10.31,0,0,1,1.11-.05H31c.49,0,1,0,1.46.05a8.65,8.65,0,0,1,.89.09,2.42,2.42,0,0,1,1.55,1,3.55,3.55,0,0,1,.61,2.09c0,1.31,0,2.61,0,3.91v6.85c0,1.64,0,3.29,0,4.94,0,.14,0,.27,0,.41,0,.4,0,.8,0,1.2s0,.95,0,1.43,0,.78,0,1.16,0,.76,0,1.14,0,1,0,1.55l0,3.18a6.16,6.16,0,0,1-.22,2A2.64,2.64,0,0,1,33,47.41a14.47,14.47,0,0,1-1.87.08H27.39l-4.53,0-4.06,0a4.12,4.12,0,0,1-1.26-.12,2.77,2.77,0,0,1-1.38-1A3.37,3.37,0,0,1,15.57,45a2.58,2.58,0,0,1,0-.4V38.9c0-1.35,0-2.7,0-4s0-2.45,0-3.67V30.9Zm1,11.72h.16l.82,0,7.05,0,8.79,0h1c.12,0,.2-.05.21-.18s0-.36,0-.53c0-.82,0-1.63,0-2.44s0-1.35,0-2c0-1.44,0-2.87,0-4.3,0-1.66,0-3.32,0-5,0-1,0-2,0-3,0-1.5,0-3,0-4.51,0-1.13,0-2.27-.09-3.4a1.63,1.63,0,0,0-.88-1.43,2.13,2.13,0,0,0-1-.3c-.55,0-1.1,0-1.65,0-.18,0-.24.07-.25.25s0,.48,0,.71a.85.85,0,0,1-.69.72,6.25,6.25,0,0,1-1,.1c-1.13,0-2.27,0-3.4,0-.89,0-1.78,0-2.66,0-.51,0-1,0-1.54,0a.8.8,0,0,1-.38-.06,1,1,0,0,1-.59-.74,3.44,3.44,0,0,1,0-.56c0-.25-.09-.36-.36-.37s-.4,0-.6,0a6.88,6.88,0,0,0-1.5.1,1.75,1.75,0,0,0-1.38,1.55,12.62,12.62,0,0,0-.06,1.51c0,1.23,0,2.46,0,3.69l0,6.26c0,.37,0,.75,0,1.12s0,.79,0,1.18c0,2.26,0,4.52,0,6.78,0,1.32,0,2.63,0,3.95C16.45,42,16.48,42.29,16.5,42.62ZM25.92,44V43.9h-1a9.21,9.21,0,0,0-1.66.12.75.75,0,0,0-.57,1,.83.83,0,0,0,.69.6c.4,0,.79.06,1.18.07a26.86,26.86,0,0,0,3.11-.07.85.85,0,0,0,.72-1,.89.89,0,0,0-.92-.66Z"/><path class="cls-4" d="M32.66,29.61a2.19,2.19,0,0,1-.29,1.15,11.27,11.27,0,0,1-1.09,1.87,22.69,22.69,0,0,1-1.79,2.23c-.38.41-.75.81-1.14,1.2a11.16,11.16,0,0,1-1.77,1.37c-.57.39-1.16.77-1.76,1.12a11.73,11.73,0,0,1-1.7.85,3.31,3.31,0,0,1-1.32.23,2.89,2.89,0,0,1-1.09-.29,4.72,4.72,0,0,1-1.27-.73,1.72,1.72,0,0,1-.59-1,.89.89,0,0,1,.17-.71,6.75,6.75,0,0,1,2.45-2,1.34,1.34,0,0,1,1.73.5c.14.2.27.41.4.63a.58.58,0,0,0,.66.27,3.89,3.89,0,0,0,1.57-.69,11.15,11.15,0,0,0,1.8-1.55,6.44,6.44,0,0,0,1-1.21,4.36,4.36,0,0,0,.55-1.2.39.39,0,0,0-.23-.52c-.23-.14-.47-.27-.69-.42a1.22,1.22,0,0,1-.59-.71,1.24,1.24,0,0,1,.14-1,6.1,6.1,0,0,1,1.31-1.68,4.09,4.09,0,0,1,.73-.57,1.07,1.07,0,0,1,1.54.15,3.89,3.89,0,0,1,1.27,2.36A1.93,1.93,0,0,1,32.66,29.61Z"/><path class="cls-4" d="M17.8,28.16a3.91,3.91,0,0,1,3.95-3.78,3.83,3.83,0,0,1,3.82,3.8,3.89,3.89,0,0,1-7.77,0ZM21.68,31a2.81,2.81,0,1,0-2.89-2.78A2.92,2.92,0,0,0,21.68,31Z"/><path class="cls-4" d="M21.72,26h.45c.19,0,.21,0,.21.22s0,.66,0,1,.12.29.33.28l.46,0a2.57,2.57,0,0,1,.48,0,.24.24,0,0,1,.22.24q0,.51,0,1c0,.09-.07.14-.18.13l-.72,0-.38,0a.18.18,0,0,0-.2.18c0,.23,0,.47,0,.7s0,.27,0,.4a.16.16,0,0,1-.15.16c-.33,0-.66,0-1,0S21,30.19,21,30s0-.42,0-.64v0c.06-.32,0-.44-.37-.45s-.49,0-.73,0l-.24,0a.21.21,0,0,1-.2-.2c0-.32,0-.65,0-1a.27.27,0,0,1,.32-.24l.57.06a2.28,2.28,0,0,0,.37,0c.17,0,.23-.08.23-.25s0-.46,0-.7a.74.74,0,0,1,0-.21c0-.22.11-.36.39-.34h.37Z"/></g></g></g></svg>