<svg xmlns="http://www.w3.org/2000/svg" viewBox="0 0 51 70.57"><defs><style>.cls-1{fill:#b9e1f8;}.cls-2{fill:none;}.cls-3{fill:#ed7c81;}.cls-4{fill:#dd2127;}.cls-5{fill:#e9575c;}.cls-6{fill:#e43337;}.cls-7{fill:#e64044;}.cls-8{fill:#e9e8e8;}.cls-9{fill:#d6d8d7;}.cls-10{fill:#fdfdfd;}.cls-11{fill:#fefefe;}.cls-12{fill:#fdf7f6;}</style></defs><g id="Layer_2" data-name="Layer 2"><g id="Layer_1-2" data-name="Layer 1"><path d="M19,52.92V58.5H17.86V52.92ZM22.55,54a1.69,1.69,0,0,1,1.28.51,1.91,1.91,0,0,1,.49,1.39v2.6H23.2V56.05a1.13,1.13,0,0,0-.27-.81.91.91,0,0,0-.72-.28,1,1,0,0,0-.73.28,1.13,1.13,0,0,0-.27.81V58.5H20.09V54.07h1.12v.55a1.59,1.59,0,0,1,.57-.45A1.77,1.77,0,0,1,22.55,54Zm4.86,1h-.77V58.5H25.5V55H25v-.92h.5v-.23a1.48,1.48,0,0,1,.46-1.2,2.15,2.15,0,0,1,1.4-.36v.95a.81.81,0,0,0-.56.13.67.67,0,0,0-.16.52v.19h.77Zm2.7,3.58A2.37,2.37,0,0,1,29,58.29a2,2,0,0,1-.8-.81,2.32,2.32,0,0,1-.29-1.2,2.48,2.48,0,0,1,.29-1.2,2.2,2.2,0,0,1,.83-.8A2.34,2.34,0,0,1,30.14,54a2.4,2.4,0,0,1,1.16.28,2.08,2.08,0,0,1,.81.8,2.28,2.28,0,0,1,.31,1.2,2.33,2.33,0,0,1-.31,1.2,2.11,2.11,0,0,1-.84.81A2.34,2.34,0,0,1,30.11,58.57Zm0-1a1.09,1.09,0,0,0,.56-.15,1.06,1.06,0,0,0,.44-.45,1.53,1.53,0,0,0,.16-.72,1.3,1.3,0,0,0-.34-1,1.11,1.11,0,0,0-1.62,0,1.34,1.34,0,0,0-.32,1,1.39,1.39,0,0,0,.32,1A1.07,1.07,0,0,0,30.11,57.6ZM10.23,64.92a3.31,3.31,0,0,1,1.55.34,2.44,2.44,0,0,1,1,1,2.88,2.88,0,0,1,.37,1.48,2.82,2.82,0,0,1-.37,1.47,2.48,2.48,0,0,1-1,1,3.31,3.31,0,0,1-1.55.34h-2V64.92Zm0,4.63A1.67,1.67,0,0,0,12,67.72a1.83,1.83,0,0,0-.48-1.36,1.8,1.8,0,0,0-1.36-.5H9.4v3.69Zm7.23-2.38v1H14v-1Zm7.35-2.25V70.5H23.65V66.87l-1.5,3.63H21.3l-1.5-3.63V70.5H18.68V64.92H20l1.78,4.15,1.77-4.15ZM30,68.19a1.91,1.91,0,0,1,0,.43H26.72a1.1,1.1,0,0,0,.34.75,1,1,0,0,0,.73.27.92.92,0,0,0,.89-.53h1.2a2,2,0,0,1-.73,1,2.12,2.12,0,0,1-1.34.41,2.33,2.33,0,0,1-1.15-.28,2,2,0,0,1-.79-.81,2.42,2.42,0,0,1-.28-1.2,2.45,2.45,0,0,1,.28-1.2,1.88,1.88,0,0,1,.78-.8,2.52,2.52,0,0,1,2.29,0,1.93,1.93,0,0,1,.78.77A2.39,2.39,0,0,1,30,68.19Zm-1.16-.32a.87.87,0,0,0-.32-.69,1.06,1.06,0,0,0-.74-.26,1,1,0,0,0-.7.25,1.1,1.1,0,0,0-.35.7Zm1.69.4a2.51,2.51,0,0,1,.26-1.19A2,2,0,0,1,32.56,66a1.8,1.8,0,0,1,.82.19,1.73,1.73,0,0,1,.63.49v-2.1h1.13V70.5H34v-.66a1.52,1.52,0,0,1-.59.53,1.75,1.75,0,0,1-.87.2,1.83,1.83,0,0,1-1-.29,2,2,0,0,1-.74-.8A2.65,2.65,0,0,1,30.53,68.27Zm3.48,0a1.35,1.35,0,0,0-.16-.69,1,1,0,0,0-.43-.45,1.08,1.08,0,0,0-.58-.16,1.11,1.11,0,0,0-1,.6,1.35,1.35,0,0,0-.16.69,1.45,1.45,0,0,0,.16.7,1.27,1.27,0,0,0,.43.46,1.21,1.21,0,0,0,.58.16,1.11,1.11,0,0,0,1-.6A1.43,1.43,0,0,0,34,68.28Zm2.79-2.74a.71.71,0,0,1-.49-.18.65.65,0,0,1-.19-.48.6.6,0,0,1,.19-.46.67.67,0,0,1,.49-.19.66.66,0,0,1,.49.19.61.61,0,0,1,.2.46.66.66,0,0,1-.2.48A.69.69,0,0,1,36.8,65.54Zm.56.53V70.5H36.24V66.07Zm2.8,4.5a2.38,2.38,0,0,1-1-.19,1.7,1.7,0,0,1-.69-.54,1.42,1.42,0,0,1-.27-.74h1.13a.59.59,0,0,0,.25.42.84.84,0,0,0,.55.17.82.82,0,0,0,.5-.13.37.37,0,0,0,.18-.32.33.33,0,0,0-.22-.32,3.23,3.23,0,0,0-.7-.24,7.58,7.58,0,0,1-.82-.25,1.59,1.59,0,0,1-.54-.39,1.09,1.09,0,0,1-.22-.72,1.22,1.22,0,0,1,.2-.67,1.56,1.56,0,0,1,.61-.48,2.29,2.29,0,0,1,.94-.17,1.85,1.85,0,0,1,1.26.4,1.41,1.41,0,0,1,.52,1.06H40.79a.6.6,0,0,0-.22-.42.85.85,0,0,0-.52-.16.83.83,0,0,0-.48.12.36.36,0,0,0-.16.31.37.37,0,0,0,.23.34,3.41,3.41,0,0,0,.69.23,7.08,7.08,0,0,1,.8.25,1.46,1.46,0,0,1,.53.4,1,1,0,0,1,.24.71,1.16,1.16,0,0,1-.21.68,1.34,1.34,0,0,1-.61.48A2.19,2.19,0,0,1,40.16,70.57Z"/><path class="cls-1" d="M7,40a7,7,0,0,1-7-7V25.5A25.5,25.5,0,0,1,25.5,0h0A25.5,25.5,0,0,1,51,25.5V33a7,7,0,0,1-7,7Z"/><path class="cls-2" d="M13.5,14.5h29v32h-29Z"/><path class="cls-3" d="M13.24,13a7.6,7.6,0,0,1,1.43-.85.57.57,0,0,1,.25-.06H26.47a21.36,21.36,0,0,1,5,1.6,16.66,16.66,0,0,1,5,3.72.49.49,0,0,1-.15.79c-.24.09-.49,0-.84-.32a25,25,0,0,0-2.86-2.27,15.49,15.49,0,0,0-7.06-2.46c-3.05-.29-6.11-.08-9.17-.14a4.41,4.41,0,0,0-2.22.65,1.45,1.45,0,0,1-.45.19A.5.5,0,0,1,13.24,13Z"/><path class="cls-4" d="M38.61,20.26a17.07,17.07,0,0,1,2.75,7.63A18.74,18.74,0,0,1,36,44,16.06,16.06,0,0,1,24.19,49H16a4,4,0,0,1-4.09-4.07q0-14.43,0-28.87A3.54,3.54,0,0,1,12.46,14a.37.37,0,0,1,.46-.06c.47.26.81,0,1.13-.28a4.54,4.54,0,0,1,2.64-.7c2.28,0,4.55,0,6.83,0a16.27,16.27,0,0,1,11.91,4.88,10.72,10.72,0,0,1,.85.8,10.74,10.74,0,0,0,1.13,1.3C37.76,20.32,38.24,20.06,38.61,20.26Z"/><path class="cls-5" d="M36.26,18.79a28.83,28.83,0,0,0-3.6-3.1,15.53,15.53,0,0,0-7.19-2.49c-3.16-.25-6.31-.06-9.47-.11a3.27,3.27,0,0,0-2,.7.83.83,0,0,1-1.35-.16l.22-.25a.9.9,0,0,0,1.25,0,3.91,3.91,0,0,1,2.29-.63c2.52,0,5,0,7.57,0A15.9,15.9,0,0,1,34.6,16.9a9.23,9.23,0,0,1,.88.76.76.76,0,0,0,1.25.08A5.82,5.82,0,0,1,38,19.38C37.24,19.85,37.09,19.8,36.26,18.79Z"/><path class="cls-6" d="M36.26,18.79c.5.44,1,.94,1.75.59a2.42,2.42,0,0,1,.6.88C37.7,20.5,36.8,19.93,36.26,18.79Z"/><path class="cls-7" d="M12.68,13.63c.44.17.86.49,1.35.16a.73.73,0,0,1-1.16.26,1.24,1.24,0,0,0-.41-.09Z"/><path class="cls-8" d="M23.48,27.14V21.28c0-.21-.07-.44.1-.63a11.16,11.16,0,0,0,5.82.16c.19,0,.37-.11.55,0,.1,2.05.08,4.1,0,6.15-.49.86-.36,1.09.69,1.1,1.7,0,3.4,0,5.11,0,.25,0,.54-.12.73.17,0,1.29,0,2.58,0,3.87,0,.71-.27.93-1,1-1.32,0-2.64,0-4,0-.32,0-.64,0-1,0-.87,0-1.08.25-1.09,1.12,0,1.51,0,3,0,4.53,0,1.17-.2,1.37-1.36,1.38-.88,0-1.76,0-2.65,0-1.22,0-1.43-.22-1.44-1.47s0-2.78,0-4.17c0-1.22-.17-1.38-1.41-1.39-1.42,0-2.84,0-4.26,0-1.16,0-1.38-.23-1.38-1.37s0-2.29,0-3.44c.13-.3.4-.2.63-.19,1.7.06,3.4,0,5.11,0a2.07,2.07,0,0,0,.5,0C23.88,27.93,24,27.7,23.48,27.14Z"/><path class="cls-9" d="M17,28.17a1.47,1.47,0,0,1,.15.85c0,1,0,1.95,0,2.93,0,.74.29.92.95.91,1.62,0,3.24,0,4.85,0,1,0,1.27.25,1.27,1.23,0,1.64,0,3.27,0,4.91,0,.63.18.94.89.9,1.07,0,2.15,0,3.23,0,.74,0,.91-.25.9-.93,0-1.64,0-3.27,0-4.91,0-.93.26-1.2,1.22-1.2,1.69,0,3.38,0,5.07,0,.58,0,.8-.18.78-.76,0-.92,0-1.85,0-2.78a3.68,3.68,0,0,1,.16-1.15c.1-.19.24-.27.44-.15a.8.8,0,0,1,.14.62c0,1.55,0,3.1,0,4.65-.19.45-.58.45-1,.44-1.74,0-3.48,0-5.22,0-.69,0-.79.21-.78.82.05,1.71,0,3.42,0,5.13,0,.91-.23,1.13-1.13,1.13H24.62c-.93,0-1.14-.22-1.14-1.18,0-1.73,0-3.47,0-5.2,0-.53-.1-.71-.67-.69-1.79,0-3.58,0-5.37,0-.81,0-1.05-.24-1.05-1,0-1.49,0-3,0-4.46,0-.22-.06-.45.15-.61A1.5,1.5,0,0,1,17,28.17Z"/><path class="cls-10" d="M36.71,28l-.29.15a12.4,12.4,0,0,1-3,.14c-.95,0-1.9,0-2.84,0a2.19,2.19,0,0,1-.72-.09c-.29-.1-.58-.18-.64-.51s.29-.4.48-.56A1.25,1.25,0,0,1,30,27c.13.35.44.24.69.24h5.4c.47,0,.89.06,1,.63C37,28,36.8,27.93,36.71,28Z"/><path class="cls-11" d="M17,28.17c-.24-.11-.48-.23-.44-.56.2-.42.59-.38.95-.38h5.28c.23,0,.49.09.7-.09.44-.17.6.18.68.45s-.18.47-.45.57a2.26,2.26,0,0,1-.78.16H17.86A6.56,6.56,0,0,1,17,28.17Z"/><path class="cls-12" d="M30,20.84a11.79,11.79,0,0,1-5.6.29.91.91,0,0,1-.77-.48c.14-.43.5-.5.88-.5,1.52,0,3,0,4.55,0C29.47,20.15,29.9,20.25,30,20.84Z"/><path class="cls-8" d="M36.71,28a.36.36,0,0,1,.33-.16A28.15,28.15,0,0,1,37,33.29c-.25-.35-.11-.75-.12-1.12,0-1.16,0-2.32,0-3.47C36.85,28.47,36.93,28.21,36.71,28Z"/></g></g></svg>