<svg xmlns="http://www.w3.org/2000/svg" viewBox="0 0 51 71"><defs><style>.cls-1{fill:#b9e1f8;}.cls-2{fill:#51aadf;}</style></defs><g id="Layer_2" data-name="Layer 2"><g id="Layer_1-2" data-name="Layer 1"><path d="M9.72,59,8.49,56.82H8V59H6.84V53.42h2.1a2.39,2.39,0,0,1,1.11.23,1.56,1.56,0,0,1,.68.61,1.65,1.65,0,0,1-1.05,2.48L11,59ZM8,56H8.9a1,1,0,0,0,.68-.21.84.84,0,0,0,.22-.62.77.77,0,0,0-.22-.59,1,1,0,0,0-.68-.22H8Zm8.13.71a2.81,2.81,0,0,1,0,.43H12.82a1.09,1.09,0,0,0,.33.75,1,1,0,0,0,.73.27.91.91,0,0,0,.89-.53H16a2.06,2.06,0,0,1-.74,1,2.11,2.11,0,0,1-1.33.41,2.37,2.37,0,0,1-1.16-.28A2.05,2.05,0,0,1,12,58a2.53,2.53,0,0,1-.28-1.2,2.56,2.56,0,0,1,.28-1.2,1.91,1.91,0,0,1,.79-.8,2.5,2.5,0,0,1,2.28,0,1.87,1.87,0,0,1,.78.77A2.28,2.28,0,0,1,16.09,56.69Zm-1.16-.32a.9.9,0,0,0-.31-.69,1.07,1.07,0,0,0-.75-.26,1,1,0,0,0-.7.25,1.09,1.09,0,0,0-.34.7Zm3.71-1.87a1.81,1.81,0,0,1,.88.2,1.52,1.52,0,0,1,.59.5v-.63h1.13V59a2.44,2.44,0,0,1-.25,1.1,1.91,1.91,0,0,1-.75.77,2.37,2.37,0,0,1-1.2.28,2.54,2.54,0,0,1-1.55-.44,1.61,1.61,0,0,1-.68-1.2h1.11a.79.79,0,0,0,.38.48,1.26,1.26,0,0,0,.71.19,1.06,1.06,0,0,0,.79-.3,1.12,1.12,0,0,0,.31-.88v-.69a1.69,1.69,0,0,1-.6.52,1.75,1.75,0,0,1-.87.21,1.83,1.83,0,0,1-1-.29,2,2,0,0,1-.74-.8,2.79,2.79,0,0,1-.26-1.21,2.64,2.64,0,0,1,.26-1.19,2,2,0,0,1,.73-.8A1.92,1.92,0,0,1,18.64,54.5Zm1.47,2.28a1.46,1.46,0,0,0-.16-.69,1.1,1.1,0,0,0-.43-.45,1.14,1.14,0,0,0-.59-.16,1.1,1.1,0,0,0-.57.15,1.19,1.19,0,0,0-.44.45,1.46,1.46,0,0,0-.16.69,1.57,1.57,0,0,0,.16.7,1.3,1.3,0,0,0,.44.46,1.17,1.17,0,0,0,.57.16,1.12,1.12,0,0,0,1-.6A1.55,1.55,0,0,0,20.11,56.78ZM22.9,54a.71.71,0,0,1-.5-.18.65.65,0,0,1-.19-.48.6.6,0,0,1,.19-.46.68.68,0,0,1,.5-.19.67.67,0,0,1,.49.19.61.61,0,0,1,.2.46.66.66,0,0,1-.2.48A.71.71,0,0,1,22.9,54Zm.55.53V59H22.33V54.57Zm2.8,4.5a2.3,2.3,0,0,1-1-.19,1.7,1.7,0,0,1-.69-.54,1.27,1.27,0,0,1-.27-.74h1.12a.66.66,0,0,0,.25.42.86.86,0,0,0,.55.17.8.8,0,0,0,.5-.13.37.37,0,0,0,.18-.32.33.33,0,0,0-.22-.32,3,3,0,0,0-.7-.24,6.71,6.71,0,0,1-.81-.25,1.63,1.63,0,0,1-.55-.39,1.09,1.09,0,0,1-.22-.72,1.16,1.16,0,0,1,.21-.67,1.43,1.43,0,0,1,.61-.48,2.21,2.21,0,0,1,.93-.17,1.9,1.9,0,0,1,1.27.4A1.48,1.48,0,0,1,28,56H26.88a.57.57,0,0,0-.22-.42.83.83,0,0,0-.52-.16.8.8,0,0,0-.47.12.34.34,0,0,0-.16.31.36.36,0,0,0,.22.34,3.33,3.33,0,0,0,.7.23,6.84,6.84,0,0,1,.79.25,1.41,1.41,0,0,1,.54.4,1.12,1.12,0,0,1,.24.71,1.17,1.17,0,0,1-.22.68,1.29,1.29,0,0,1-.61.48A2.19,2.19,0,0,1,26.25,59.07Zm4-3.58v2.14a.45.45,0,0,0,.1.33.61.61,0,0,0,.37.1h.52V59h-.7a1.24,1.24,0,0,1-1.42-1.38V55.49h-.53v-.92h.53v-1.1h1.13v1.1h1v.92Zm2.92-.23a1.58,1.58,0,0,1,.56-.56,1.61,1.61,0,0,1,.8-.2v1.18h-.3a.93.93,0,0,0-1.06,1.11V59H32V54.57h1.12ZM35,56.77a2.52,2.52,0,0,1,.27-1.19A1.93,1.93,0,0,1,37,54.5a1.68,1.68,0,0,1,.86.2,1.75,1.75,0,0,1,.6.5v-.63h1.13V59H38.45v-.65a1.62,1.62,0,0,1-.6.52,1.75,1.75,0,0,1-.87.2,1.81,1.81,0,0,1-1-.29,2,2,0,0,1-.73-.8A2.66,2.66,0,0,1,35,56.77Zm3.49,0a1.35,1.35,0,0,0-.16-.69,1.15,1.15,0,0,0-1-.61,1.17,1.17,0,0,0-.58.15,1.1,1.1,0,0,0-.43.45,1.35,1.35,0,0,0-.16.69,1.45,1.45,0,0,0,.16.7,1.19,1.19,0,0,0,.43.46,1.18,1.18,0,0,0,.58.16,1.19,1.19,0,0,0,.58-.15,1.24,1.24,0,0,0,.43-.45A1.43,1.43,0,0,0,38.45,56.78Zm3.92,2.29a2.38,2.38,0,0,1-1-.19,1.74,1.74,0,0,1-.68-.54,1.35,1.35,0,0,1-.28-.74h1.13a.62.62,0,0,0,.25.42.84.84,0,0,0,.55.17.82.82,0,0,0,.5-.13.37.37,0,0,0,.18-.32.33.33,0,0,0-.22-.32,3.23,3.23,0,0,0-.7-.24,6.71,6.71,0,0,1-.81-.25,1.63,1.63,0,0,1-.55-.39,1.09,1.09,0,0,1-.22-.72,1.16,1.16,0,0,1,.21-.67,1.46,1.46,0,0,1,.6-.48,2.29,2.29,0,0,1,.94-.17,1.85,1.85,0,0,1,1.26.4A1.41,1.41,0,0,1,44.07,56H43a.57.57,0,0,0-.22-.42.83.83,0,0,0-.52-.16.78.78,0,0,0-.47.12.34.34,0,0,0-.16.31.36.36,0,0,0,.22.34,3.33,3.33,0,0,0,.7.23,6.84,6.84,0,0,1,.79.25,1.38,1.38,0,0,1,.53.4,1,1,0,0,1,.24.71,1.16,1.16,0,0,1-.21.68,1.29,1.29,0,0,1-.61.48A2.19,2.19,0,0,1,42.37,59.07Zm3.23-5a.73.73,0,0,1-.5-.18.69.69,0,0,1-.19-.48.64.64,0,0,1,.19-.46.69.69,0,0,1,.5-.19.66.66,0,0,1,.49.19.61.61,0,0,1,.2.46.66.66,0,0,1-.2.48A.69.69,0,0,1,45.6,54Zm.55.53V59H45V54.57ZM19.23,71l-2-2.49V71H16.08V65.42H17.2v2.5l2-2.5h1.35l-2.3,2.76L20.65,71Zm3.27-5.92V71H21.38V65.08Zm1.68,1a.73.73,0,0,1-.5-.18.65.65,0,0,1-.19-.48.6.6,0,0,1,.19-.46.69.69,0,0,1,.5-.19.66.66,0,0,1,.49.19.61.61,0,0,1,.2.46.66.66,0,0,1-.2.48A.69.69,0,0,1,24.18,66Zm.55.53V71H23.61V66.57Zm3.56-.07a1.68,1.68,0,0,1,1.28.51,1.87,1.87,0,0,1,.49,1.39V71H28.94V68.55a1.18,1.18,0,0,0-.26-.81.94.94,0,0,0-.72-.28,1,1,0,0,0-.74.28,1.18,1.18,0,0,0-.26.81V71H25.84V66.57H27v.55a1.59,1.59,0,0,1,.57-.45A1.76,1.76,0,0,1,28.29,66.5Zm3.4-.46a.71.71,0,0,1-.49-.18.65.65,0,0,1-.19-.48.6.6,0,0,1,.19-.46.67.67,0,0,1,.49-.19.66.66,0,0,1,.49.19.58.58,0,0,1,.2.46.62.62,0,0,1-.2.48A.69.69,0,0,1,31.69,66Zm.56.53V71H31.13V66.57ZM36,71l-1.51-1.89V71H33.35V65.08h1.12v3.37L36,66.57h1.46l-2,2.22,2,2.21Z"/><path class="cls-1" d="M7,40a7,7,0,0,1-7-7V25.5A25.5,25.5,0,0,1,25.5,0h0A25.5,25.5,0,0,1,51,25.5V33a7,7,0,0,1-7,7Z"/><path class="cls-2" d="M34.8,48H13.6c-.2-.43-.57-.85-.57-1.28,0-9.19,0-18.38,0-27.58,0-.93.4-1.34,1.32-1.33s1.63,0,2.5,0V15.58c0-1.33.25-1.58,1.56-1.58H37.56c1.29,0,1.56.27,1.56,1.59,0,2.6,0,5.2,0,7.8,0,.33,0,.66.07,1.31,1-1,1.69-1.79,2.45-2.55a3.1,3.1,0,0,1,3.11-.85A3.75,3.75,0,0,1,47,23.4v1.8c-.53.66-1,1.38-1.59,2-1.85,1.91-3.77,3.75-5.61,5.68a2.5,2.5,0,0,0-.64,1.53c-.07,2.73,0,5.46,0,8.18,0,1.3-.31,1.59-1.58,1.6H35.49C35.23,45.58,35,46.79,34.8,48ZM37,35.79a7.28,7.28,0,0,1-1.52,1.11c-1.31.49-2.65.89-4,1.26-1.15.32-1.75-.32-1.41-1.49a24.29,24.29,0,0,1,1-3,7.66,7.66,0,0,1,1.31-2.16c1.3-1.43,2.74-2.72,4.06-4.14A2.38,2.38,0,0,0,37,25.89c0-3,0-5.93,0-8.89,0-.32,0-.64,0-.95H18.92v26H37ZM15.07,19.89v26h18.1V44.18H18.56c-1.49,0-1.74-.24-1.74-1.73V19.89Zm20.68,14a3.9,3.9,0,0,0,.46-.34l8.26-8.26c.77-.78.67-1.78-.24-2a1.8,1.8,0,0,0-1.35.53c-2.74,2.68-5.43,5.4-8.14,8.11a6.12,6.12,0,0,0-.44.56Zm-3.26,1.87L34,35.21,33,34C32.84,34.66,32.7,35.08,32.49,35.73Z"/><path class="cls-2" d="M27.9,19.85h5c.77,0,1.48.18,1.46,1.09s-.72,1-1.45,1H23c-.72,0-1.39-.15-1.39-1s.66-1,1.38-1Z"/><path class="cls-2" d="M27.94,27.38h-5c-.71,0-1.29-.19-1.32-1s.57-1,1.28-1c3.37,0,6.74,0,10.1,0,.72,0,1.34.19,1.34,1s-.64,1.06-1.4,1.05Z"/><path class="cls-2" d="M25.79,32.8h-2.9c-.72,0-1.28-.19-1.27-1s.54-1,1.23-1h5.9c.69,0,1.21.23,1.23,1s-.48,1-1.19,1Z"/><path class="cls-2" d="M25,38.25a12.45,12.45,0,0,1-2.29,0,1.57,1.57,0,0,1-1-.93c-.13-.62.38-1,1-1.05,1.56,0,3.13,0,4.69,0a1,1,0,0,1,1.12,1c0,.67-.46,1-1.13,1Z"/></g></g></svg>