<svg xmlns="http://www.w3.org/2000/svg" xmlns:xlink="http://www.w3.org/1999/xlink" viewBox="0 0 51 71.07"><defs><style>.cls-1{fill:none;}.cls-2{fill:#b9e1f8;}.cls-3{clip-path:url(#clip-path);}.cls-4{fill:#51aadf;}</style><clipPath id="clip-path"><rect class="cls-1" x="9" y="15" width="31" height="36"/></clipPath></defs><g id="Layer_2" data-name="Layer 2"><g id="Layer_1-2" data-name="Layer 1"><path d="M16.17,53.42a3.3,3.3,0,0,1,1.54.34,2.44,2.44,0,0,1,1,1,2.88,2.88,0,0,1,.37,1.48,2.82,2.82,0,0,1-.37,1.47,2.48,2.48,0,0,1-1,1,3.3,3.3,0,0,1-1.54.34h-2V53.42Zm0,4.63a1.85,1.85,0,0,0,1.36-.48,1.86,1.86,0,0,0-1.36-3.21h-.79v3.69Zm3.53-1.28a2.52,2.52,0,0,1,.27-1.19,1.9,1.9,0,0,1,1.76-1.08,1.68,1.68,0,0,1,.86.2,1.75,1.75,0,0,1,.6.5v-.63h1.13V59H23.15v-.65a1.62,1.62,0,0,1-.6.52,1.75,1.75,0,0,1-.87.2,1.87,1.87,0,0,1-1-.29,2.07,2.07,0,0,1-.72-.8A2.66,2.66,0,0,1,19.66,56.77Zm3.49,0a1.35,1.35,0,0,0-.16-.69,1.1,1.1,0,0,0-.43-.45,1.11,1.11,0,0,0-.59-.16,1.13,1.13,0,0,0-.57.15,1.1,1.1,0,0,0-.43.45,1.35,1.35,0,0,0-.16.69,1.45,1.45,0,0,0,.16.7,1.19,1.19,0,0,0,.43.46,1.17,1.17,0,0,0,.57.16,1.2,1.2,0,0,0,.59-.15,1.24,1.24,0,0,0,.43-.45A1.43,1.43,0,0,0,23.15,56.78Zm4.25-1.29h-.77V59H25.49V55.49H25v-.92h.5v-.23a1.48,1.48,0,0,1,.47-1.2,2.13,2.13,0,0,1,1.4-.36v.95a.84.84,0,0,0-.57.13.67.67,0,0,0-.16.52v.19h.77Zm2,0v2.14a.45.45,0,0,0,.11.33.58.58,0,0,0,.37.1h.52V59h-.71a1.23,1.23,0,0,1-1.41-1.38V55.49h-.53v-.92h.53v-1.1h1.12v1.1h1v.92Zm1.51,1.28a2.52,2.52,0,0,1,.27-1.19A1.93,1.93,0,0,1,33,54.5a1.68,1.68,0,0,1,.86.2,1.75,1.75,0,0,1,.6.5v-.63h1.13V59H34.43v-.65a1.62,1.62,0,0,1-.6.52,1.75,1.75,0,0,1-.87.2,1.81,1.81,0,0,1-1-.29,2,2,0,0,1-.73-.8A2.66,2.66,0,0,1,30.94,56.77Zm3.49,0a1.35,1.35,0,0,0-.16-.69,1,1,0,0,0-.43-.45,1.1,1.1,0,0,0-.58-.16,1.17,1.17,0,0,0-.58.15,1.1,1.1,0,0,0-.43.45,1.35,1.35,0,0,0-.16.69,1.45,1.45,0,0,0,.16.7,1.19,1.19,0,0,0,.43.46,1.18,1.18,0,0,0,.58.16,1.19,1.19,0,0,0,.58-.15,1.16,1.16,0,0,0,.43-.45A1.43,1.43,0,0,0,34.43,56.78Zm3.34-1.52a1.67,1.67,0,0,1,.56-.56,1.64,1.64,0,0,1,.8-.2v1.18h-.29a.94.94,0,0,0-1.07,1.11V59H36.65V54.57h1.12ZM15.33,69.94H13.11L12.74,71H11.56l2-5.59h1.31l2,5.59H15.7ZM15,69l-.81-2.34L13.41,69Zm5.06-2.54a1.69,1.69,0,0,1,1.28.51,1.87,1.87,0,0,1,.49,1.39V71H20.74V68.55a1.13,1.13,0,0,0-.27-.81.91.91,0,0,0-.72-.28,1,1,0,0,0-.73.28,1.13,1.13,0,0,0-.27.81V71H17.63V66.57h1.12v.55a1.59,1.59,0,0,1,.57-.45A1.81,1.81,0,0,1,20.09,66.5Zm4.14,1v2.14a.45.45,0,0,0,.1.33.61.61,0,0,0,.37.1h.52V71h-.7a1.24,1.24,0,0,1-1.42-1.38V67.49h-.53v-.92h.53v-1.1h1.13v1.1h1v.92Zm2.91-.23a1.76,1.76,0,0,1,.56-.56,1.67,1.67,0,0,1,.8-.2v1.18h-.29a.94.94,0,0,0-1.07,1.11V71H26V66.57h1.12ZM29.83,66a.71.71,0,0,1-.5-.18.65.65,0,0,1-.19-.48.6.6,0,0,1,.19-.46.68.68,0,0,1,.5-.19.67.67,0,0,1,.49.19.61.61,0,0,1,.2.46.66.66,0,0,1-.2.48A.71.71,0,0,1,29.83,66Zm.55.53V71H29.26V66.57Zm.82,2.2a2.64,2.64,0,0,1,.26-1.19,2,2,0,0,1,.73-.8,1.92,1.92,0,0,1,1-.28,1.8,1.8,0,0,1,1.47.7v-.63h1.12V71H34.69v-.65a1.75,1.75,0,0,1-1.48.72,1.83,1.83,0,0,1-1-.29,2.1,2.1,0,0,1-.73-.8A2.79,2.79,0,0,1,31.2,68.77Zm3.49,0a1.46,1.46,0,0,0-.16-.69,1.12,1.12,0,0,0-.44-.45,1.08,1.08,0,0,0-.58-.16,1.11,1.11,0,0,0-1,.6,1.35,1.35,0,0,0-.16.69,1.45,1.45,0,0,0,.16.7,1.27,1.27,0,0,0,.43.46,1.21,1.21,0,0,0,.58.16,1.17,1.17,0,0,0,.58-.15,1.27,1.27,0,0,0,.44-.45A1.55,1.55,0,0,0,34.69,68.78Zm4.67-2.28a1.68,1.68,0,0,1,1.28.51,1.87,1.87,0,0,1,.49,1.39V71H40V68.55a1.18,1.18,0,0,0-.26-.81.94.94,0,0,0-.72-.28,1,1,0,0,0-.74.28,1.18,1.18,0,0,0-.26.81V71H36.91V66.57H38v.55a1.59,1.59,0,0,1,.57-.45A1.76,1.76,0,0,1,39.36,66.5Z"/><path class="cls-2" d="M7,40a7,7,0,0,1-7-7V25.5A25.5,25.5,0,0,1,25.5,0h0A25.5,25.5,0,0,1,51,25.5V33a7,7,0,0,1-7,7Z"/><g class="cls-3"><path class="cls-4" d="M37,40.75c-.16,2.77-.32,5.43-.47,8.09-.1,1.81-.45,2.16-2.27,2.16H31.09c-1.19,0-1.66-.45-1.72-1.58-.15-2.56-.33-5.12-.43-7.68,0-.8-.34-1.12-1.16-1.22-2-.23-2-.34-1.82-2.24.12-1.08.2-2.18.42-3.24a4.41,4.41,0,0,1,5.32-3.56,8.2,8.2,0,0,0,2.32,0c2.76-.39,4.83.94,5.39,3.61.26,1.26.35,2.57.56,3.85.15.9-.25,1.35-1.13,1.5Z"/><path class="cls-4" d="M29.65,29.77a6.54,6.54,0,0,0-5,6.13c-.09,1.06-.29,2.1-.36,3.16a2.47,2.47,0,0,0,2.22,2.87c.67.12.88.4.91,1,.07,1.34.14,2.67.27,4,.07.71-.26,1-.92,1.07-1.49,0-3,.08-4.45,0-1.05-.05-1.33-.82-1.38-1.74-.13-2.67-.29-5.33-.44-8a4,4,0,0,0-.1-.53c-.68-.11-1.34-.21-2-.34a1.06,1.06,0,0,1-1-1.33c.19-1.29.29-2.58.51-3.86a4.21,4.21,0,0,1,3.51-3.78,27.74,27.74,0,0,1,6.11,0,6.85,6.85,0,0,1,2.2,1.06A2.45,2.45,0,0,0,29.65,29.77Z"/><path class="cls-4" d="M19,39.15c.08,1.58.12,3.15.25,4.72.06.77-.3,1.1-1,1.11-1.41,0-2.83.06-4.24,0a1.37,1.37,0,0,1-1.41-1.47c-.17-2.66-.37-5.32-.51-8,0-.66-.19-1-.95-1a3,3,0,0,1-.72-.13C9.06,34.14,8.91,34,9,32.68s.23-2.31.43-3.45a4.63,4.63,0,0,1,3.3-3.79,5.59,5.59,0,0,1,1.74-.08,11.2,11.2,0,0,0,2.71,0c1.66-.42,2.85.21,4.13,1.25l-.93.36a6.41,6.41,0,0,0-4.22,5.45c-.12,1-.26,2-.38,3-.25,2,.45,3,2.5,3.45A5.8,5.8,0,0,1,19,39.15Z"/><path class="cls-4" d="M28.26,25.53A4.53,4.53,0,0,1,32.87,21a4.51,4.51,0,1,1,0,9A4.55,4.55,0,0,1,28.26,25.53Z"/><path class="cls-4" d="M18.29,23.35a4.75,4.75,0,0,1-6.3-1.7,4.38,4.38,0,0,1,1.64-6,4.76,4.76,0,0,1,6.21,1.23c.41.58.61,1-.05,1.66A5.58,5.58,0,0,0,18.29,23.35Z"/><path class="cls-4" d="M24.45,26.94a4.59,4.59,0,0,1-4.58-3.64,4.49,4.49,0,0,1,2.87-4.95,4.72,4.72,0,0,1,5.58,1.7c.38.56.45,1-.1,1.49a5.52,5.52,0,0,0-1.61,3.79c-.07,1.27-.23,1.47-1.53,1.61C24.88,27,24.66,26.94,24.45,26.94Z"/></g></g></g></svg>