<svg xmlns="http://www.w3.org/2000/svg" xmlns:xlink="http://www.w3.org/1999/xlink" viewBox="0 0 51 70.57"><defs><style>.cls-1{fill:none;}.cls-2{fill:#b9e1f8;}.cls-3{clip-path:url(#clip-path);}.cls-4{fill:#51aadf;}</style><clipPath id="clip-path"><rect class="cls-1" x="11.5" y="13.5" width="28" height="34"/></clipPath></defs><g id="Layer_2" data-name="Layer 2"><g id="Layer_1-2" data-name="Layer 1"><path d="M7.17,52.92V58.5H6.05V52.92ZM10.73,54a1.68,1.68,0,0,1,1.28.51,1.87,1.87,0,0,1,.49,1.39v2.6H11.38V56.05a1.18,1.18,0,0,0-.26-.81A.94.94,0,0,0,10.4,55a1,1,0,0,0-.74.28,1.18,1.18,0,0,0-.26.81V58.5H8.28V54.07H9.4v.55a1.59,1.59,0,0,1,.57-.45A1.76,1.76,0,0,1,10.73,54Zm4.87,1h-.78V58.5H13.69V55h-.51v-.92h.51v-.23a1.48,1.48,0,0,1,.46-1.2,2.15,2.15,0,0,1,1.4-.36v.95a.86.86,0,0,0-.57.13.72.72,0,0,0-.16.52v.19h.78Zm2.69,3.58a2.33,2.33,0,0,1-1.15-.28,2.1,2.1,0,0,1-.81-.81,2.42,2.42,0,0,1-.28-1.2,2.37,2.37,0,0,1,.29-1.2,2.13,2.13,0,0,1,.83-.8A2.34,2.34,0,0,1,18.33,54a2.4,2.4,0,0,1,1.16.28,2.14,2.14,0,0,1,.81.8,2.38,2.38,0,0,1,.31,1.2,2.24,2.24,0,0,1-.32,1.2,2.09,2.09,0,0,1-.83.81A2.38,2.38,0,0,1,18.29,58.57Zm0-1a1.1,1.1,0,0,0,.57-.15,1,1,0,0,0,.43-.45,1.42,1.42,0,0,0,.16-.72,1.3,1.3,0,0,0-.33-1,1.11,1.11,0,0,0-1.62,0,1.34,1.34,0,0,0-.32,1,1.44,1.44,0,0,0,.31,1A1.09,1.09,0,0,0,18.29,57.6Zm4.26-2.84a1.58,1.58,0,0,1,.56-.56,1.61,1.61,0,0,1,.8-.2v1.18h-.3a1.13,1.13,0,0,0-.8.25,1.16,1.16,0,0,0-.26.86V58.5H21.43V54.07h1.12ZM30.17,54a1.75,1.75,0,0,1,1.31.51A1.88,1.88,0,0,1,32,55.9v2.6H30.86V56.05a1.12,1.12,0,0,0-.26-.79,1.08,1.08,0,0,0-1.45,0,1.08,1.08,0,0,0-.26.79V58.5H27.77V56.05a1.08,1.08,0,0,0-.27-.79.91.91,0,0,0-.72-.28,1,1,0,0,0-.73.28,1.08,1.08,0,0,0-.27.79V58.5H24.66V54.07h1.12v.53a1.7,1.7,0,0,1,.55-.44,1.92,1.92,0,0,1,1.68.07,1.47,1.47,0,0,1,.64.62,1.58,1.58,0,0,1,.62-.61A1.78,1.78,0,0,1,30.17,54Zm2.59,2.27A2.51,2.51,0,0,1,33,55.08a1.89,1.89,0,0,1,.73-.8,1.92,1.92,0,0,1,1-.28,1.68,1.68,0,0,1,.86.2,1.75,1.75,0,0,1,.6.5v-.63h1.13V58.5H36.24v-.65a1.62,1.62,0,0,1-.6.52,1.75,1.75,0,0,1-.87.2,1.83,1.83,0,0,1-1-.29,2,2,0,0,1-.73-.8A2.65,2.65,0,0,1,32.76,56.27Zm3.48,0a1.35,1.35,0,0,0-.16-.69,1,1,0,0,0-.43-.45,1.08,1.08,0,0,0-.58-.16,1.11,1.11,0,0,0-1,.6,1.35,1.35,0,0,0-.16.69,1.45,1.45,0,0,0,.16.7,1.27,1.27,0,0,0,.43.46,1.21,1.21,0,0,0,.58.16,1.11,1.11,0,0,0,1-.6A1.43,1.43,0,0,0,36.24,56.28Zm3.92,2.29a2.3,2.3,0,0,1-1-.19,1.7,1.7,0,0,1-.69-.54,1.27,1.27,0,0,1-.27-.74h1.12a.66.66,0,0,0,.25.42.86.86,0,0,0,.55.17.8.8,0,0,0,.5-.13.37.37,0,0,0,.18-.32.33.33,0,0,0-.22-.32,3,3,0,0,0-.7-.24,6.71,6.71,0,0,1-.81-.25,1.63,1.63,0,0,1-.55-.39,1.09,1.09,0,0,1-.22-.72,1.16,1.16,0,0,1,.21-.67,1.43,1.43,0,0,1,.61-.48,2.21,2.21,0,0,1,.93-.17,1.9,1.9,0,0,1,1.27.4,1.48,1.48,0,0,1,.52,1.06H40.79a.57.57,0,0,0-.22-.42.83.83,0,0,0-.52-.16.8.8,0,0,0-.47.12.34.34,0,0,0-.16.31.36.36,0,0,0,.22.34,3.33,3.33,0,0,0,.7.23,6.84,6.84,0,0,1,.79.25,1.41,1.41,0,0,1,.54.4,1.12,1.12,0,0,1,.24.71,1.17,1.17,0,0,1-.22.68,1.29,1.29,0,0,1-.61.48A2.19,2.19,0,0,1,40.16,58.57Zm3.23-5a.71.71,0,0,1-.49-.18.65.65,0,0,1-.19-.48.6.6,0,0,1,.19-.46.67.67,0,0,1,.49-.19.66.66,0,0,1,.49.19.61.61,0,0,1,.2.46.66.66,0,0,1-.2.48A.69.69,0,0,1,43.39,53.54Zm.56.53V58.5H42.83V54.07ZM14.11,64.92a3.34,3.34,0,0,1,1.55.34,2.44,2.44,0,0,1,1,1,3,3,0,0,1,.37,1.48,2.92,2.92,0,0,1-.37,1.47,2.48,2.48,0,0,1-1,1,3.34,3.34,0,0,1-1.55.34H12.16V64.92Zm0,4.63a1.92,1.92,0,0,0,1.36-3.19,1.8,1.8,0,0,0-1.36-.5h-.79v3.69Zm5.79,1a2.33,2.33,0,0,1-1.15-.28,2.1,2.1,0,0,1-.81-.81,2.42,2.42,0,0,1-.28-1.2,2.37,2.37,0,0,1,.29-1.2,2.13,2.13,0,0,1,.83-.8A2.34,2.34,0,0,1,19.9,66a2.4,2.4,0,0,1,1.16.28,2.14,2.14,0,0,1,.81.8,2.38,2.38,0,0,1,.31,1.2,2.24,2.24,0,0,1-.32,1.2,2.09,2.09,0,0,1-.83.81A2.36,2.36,0,0,1,19.86,70.57Zm0-1a1.1,1.1,0,0,0,.57-.15,1,1,0,0,0,.43-.45,1.42,1.42,0,0,0,.16-.72,1.3,1.3,0,0,0-.33-1,1.11,1.11,0,0,0-1.62,0,1.34,1.34,0,0,0-.32,1,1.44,1.44,0,0,0,.31,1A1.09,1.09,0,0,0,19.86,69.6Zm5.76.9-1.5-1.89V70.5H23V64.58h1.12V68l1.49-1.88h1.45l-1.95,2.22,2,2.21ZM29,67v2.14a.45.45,0,0,0,.11.33.56.56,0,0,0,.37.1H30v.94h-.71a1.23,1.23,0,0,1-1.41-1.38V67h-.53v-.92h.53V65H29v1.1h1V67Zm5.92,1.2a2.81,2.81,0,0,1,0,.43H31.62a1.14,1.14,0,0,0,.33.75,1,1,0,0,0,.73.27.91.91,0,0,0,.89-.53h1.21a2,2,0,0,1-.74,1,2.11,2.11,0,0,1-1.33.41,2.37,2.37,0,0,1-1.16-.28,2.05,2.05,0,0,1-.79-.81,2.53,2.53,0,0,1-.28-1.2,2.56,2.56,0,0,1,.28-1.2,1.91,1.91,0,0,1,.79-.8,2.5,2.5,0,0,1,2.28,0,1.87,1.87,0,0,1,.78.77A2.28,2.28,0,0,1,34.89,68.19Zm-1.16-.32a.87.87,0,0,0-.31-.69,1.07,1.07,0,0,0-.75-.26,1,1,0,0,0-.7.25,1.09,1.09,0,0,0-.34.7Zm3.1-1.11a1.58,1.58,0,0,1,.56-.56,1.61,1.61,0,0,1,.8-.2v1.18h-.3a1.13,1.13,0,0,0-.8.25,1.16,1.16,0,0,0-.26.86V70.5H35.71V66.07h1.12Z"/><path class="cls-2" d="M7,40a7,7,0,0,1-7-7V25.5A25.5,25.5,0,0,1,25.5,0h0A25.5,25.5,0,0,1,51,25.5V33a7,7,0,0,1-7,7Z"/><g class="cls-3"><path class="cls-4" d="M20.05,30.11c-.43,1.07-.88,2.16-1.28,3.28a7.59,7.59,0,0,0-.28,1.51.46.46,0,0,1-.39.47,3.53,3.53,0,0,0-2.72,3.47c0,.73,0,1.46,0,2.18,0,.55.17.72.7.73h1.39c.35,0,.6-.17.6-.51s-.25-.55-.62-.54h-1a18,18,0,0,1,0-2.33A2.51,2.51,0,0,1,19,36.28a2.55,2.55,0,0,1,2.45,2.24c.06.7,0,1.41,0,2.18-.38,0-.72,0-1.07,0a.51.51,0,0,0-.58.53c0,.36.25.52.6.52h1.48a.54.54,0,0,0,.6-.62c0-.88,0-1.75,0-2.63a3.48,3.48,0,0,0-2.57-3.12c-.3-.09-.38-.18-.35-.5a10.12,10.12,0,0,1,1.56-4.21l1.56,1.82L24,34.07a1.83,1.83,0,0,0,3,0l3-3.51a5.23,5.23,0,0,1,1.62,2.77,2.12,2.12,0,0,0-1.38,1.47,2,2,0,0,0,1.32,2.41,2,2,0,0,0,2.5-1.13,2,2,0,0,0-.91-2.54,1.13,1.13,0,0,1-.64-.83A6.54,6.54,0,0,0,32,31.4c-.23-.42-.53-.79-.86-1.27l.54.13a9.74,9.74,0,0,1,7.29,8.55c.16,1.41.35,2.83.52,4.24a2.88,2.88,0,0,1-2.32,3.25A56,56,0,0,1,20,47.21c-2.06-.22-4.11-.56-6.15-.92a2.76,2.76,0,0,1-2.3-3c.2-1.94.4-3.89.79-5.8a9.59,9.59,0,0,1,7.55-7.33A.58.58,0,0,1,20.05,30.11Zm8.53,12.54c0,.2,0,.33,0,.46,0,1.37-.14,1.19,1.28,1.2.33,0,.49-.13.47-.47s0-.75,0-1.15l.43,0c1.29,0,1.29,0,1.21-1.31,0-.33-.14-.49-.48-.48H30.36v-.45c0-1.27.16-1.15-1.17-1.17-.42,0-.61.13-.59.57s0,.71,0,1.1c-.44,0-.81,0-1.16,0s-.53.31-.45.61-.4,1,.45,1.12A10.49,10.49,0,0,0,28.58,42.65Z"/><path class="cls-4" d="M32.38,22.13A8.54,8.54,0,0,1,29.88,28a6,6,0,0,1-9-.32,9.3,9.3,0,0,1,0-12,6.09,6.09,0,0,1,9.56.3A9.41,9.41,0,0,1,32.38,22.13Z"/><path class="cls-4" d="M31.23,35.25a1,1,0,0,1,1-1,1,1,0,1,1-.06,2A1,1,0,0,1,31.23,35.25Z"/></g></g></g></svg>