<svg xmlns="http://www.w3.org/2000/svg" xmlns:xlink="http://www.w3.org/1999/xlink" viewBox="0 0 51 70.57"><defs><style>.cls-1{fill:none;}.cls-2{fill:#b9e1f8;}.cls-3{clip-path:url(#clip-path);}.cls-4{fill:#51aadf;}</style><clipPath id="clip-path"><rect class="cls-1" x="13.5" y="13.5" width="24" height="35"/></clipPath></defs><g id="Layer_2" data-name="Layer 2"><g id="Layer_1-2" data-name="Layer 1"><path d="M12,58.5l-1.24-2.18h-.52V58.5H9.11V52.92H11.2a2.39,2.39,0,0,1,1.11.23,1.56,1.56,0,0,1,.68.61,1.65,1.65,0,0,1-1,2.48l1.33,2.26Zm-1.76-3h.93a1,1,0,0,0,.68-.21.85.85,0,0,0,.23-.62.78.78,0,0,0-.23-.59,1,1,0,0,0-.68-.22h-.93Zm4.57-1.94a.73.73,0,0,1-.5-.18.69.69,0,0,1-.19-.48.64.64,0,0,1,.19-.46.69.69,0,0,1,.5-.19.66.66,0,0,1,.49.19.61.61,0,0,1,.2.46.66.66,0,0,1-.2.48A.69.69,0,0,1,14.8,53.54Zm.55.53V58.5H14.23V54.07Zm7.25,0L21.31,58.5H20.1l-.81-3.1-.81,3.1H17.27L16,54.07H17.1l.78,3.37.85-3.37h1.18l.84,3.37.78-3.37Zm.32,2.2a2.64,2.64,0,0,1,.26-1.19,2,2,0,0,1,.73-.8,1.94,1.94,0,0,1,1-.28,1.8,1.8,0,0,1,1.47.7v-.63h1.13V58.5H26.41v-.65a1.8,1.8,0,0,1-.6.52,1.75,1.75,0,0,1-.87.2,1.84,1.84,0,0,1-1-.29,2.18,2.18,0,0,1-.73-.8A2.79,2.79,0,0,1,22.92,56.27Zm3.49,0a1.46,1.46,0,0,0-.16-.69,1.1,1.1,0,0,0-.43-.45,1.14,1.14,0,0,0-.59-.16,1.1,1.1,0,0,0-.57.15,1.19,1.19,0,0,0-.44.45,1.46,1.46,0,0,0-.16.69,1.57,1.57,0,0,0,.16.7,1.3,1.3,0,0,0,.44.46,1.17,1.17,0,0,0,.57.16,1.12,1.12,0,0,0,1-.6A1.55,1.55,0,0,0,26.41,56.28Zm6.46-2.21L30.13,60.6h-1.2l1-2.21-1.77-4.32h1.25l1.15,3.09,1.16-3.09Zm.32,2.2a2.51,2.51,0,0,1,.26-1.19,1.89,1.89,0,0,1,.73-.8,1.92,1.92,0,0,1,1-.28,1.68,1.68,0,0,1,.86.2,1.75,1.75,0,0,1,.6.5v-.63H37.8V58.5H36.67v-.65a1.62,1.62,0,0,1-.6.52,1.75,1.75,0,0,1-.87.2,1.83,1.83,0,0,1-1-.29,2,2,0,0,1-.73-.8A2.65,2.65,0,0,1,33.19,56.27Zm3.48,0a1.35,1.35,0,0,0-.16-.69,1,1,0,0,0-.43-.45A1.08,1.08,0,0,0,35.5,55a1.11,1.11,0,0,0-1,.6,1.35,1.35,0,0,0-.16.69,1.45,1.45,0,0,0,.16.7,1.27,1.27,0,0,0,.43.46,1.21,1.21,0,0,0,.58.16,1.11,1.11,0,0,0,1-.6A1.43,1.43,0,0,0,36.67,56.28ZM40.2,55v2.14a.45.45,0,0,0,.1.33.61.61,0,0,0,.37.1h.52v.94h-.7a1.24,1.24,0,0,1-1.42-1.38V55h-.53v-.92h.53V53H40.2v1.1h1V55ZM19.57,64.92V70.5H18.45V66.87L17,70.5h-.84L14.6,66.87V70.5H13.48V64.92h1.27l1.78,4.15,1.78-4.15Zm5.23,3.27a2.81,2.81,0,0,1,0,.43H21.53a1,1,0,0,0,1.06,1,.91.91,0,0,0,.89-.53h1.21a2.06,2.06,0,0,1-.74,1,2.12,2.12,0,0,1-1.34.41,2.33,2.33,0,0,1-1.15-.28,2.05,2.05,0,0,1-.79-.81,2.42,2.42,0,0,1-.28-1.2,2.45,2.45,0,0,1,.28-1.2,1.94,1.94,0,0,1,.78-.8,2.52,2.52,0,0,1,2.29,0,1.87,1.87,0,0,1,.78.77A2.39,2.39,0,0,1,24.8,68.19Zm-1.16-.32a.9.9,0,0,0-.31-.69,1.11,1.11,0,0,0-.75-.26,1,1,0,0,0-.7.25,1.15,1.15,0,0,0-.35.7Zm1.69.4a2.51,2.51,0,0,1,.26-1.19A2,2,0,0,1,27.36,66a1.8,1.8,0,0,1,.82.19,1.73,1.73,0,0,1,.63.49v-2.1h1.13V70.5H28.81v-.66a1.52,1.52,0,0,1-.59.53,1.75,1.75,0,0,1-.87.2,1.83,1.83,0,0,1-1-.29,2,2,0,0,1-.74-.8A2.65,2.65,0,0,1,25.33,68.27Zm3.48,0a1.35,1.35,0,0,0-.16-.69,1,1,0,0,0-.43-.45,1.08,1.08,0,0,0-.58-.16,1.11,1.11,0,0,0-1,.6,1.35,1.35,0,0,0-.16.69,1.45,1.45,0,0,0,.16.7,1.27,1.27,0,0,0,.43.46,1.21,1.21,0,0,0,.58.16,1.11,1.11,0,0,0,1-.6A1.43,1.43,0,0,0,28.81,68.28Zm2.79-2.74a.71.71,0,0,1-.49-.18.65.65,0,0,1-.19-.48.6.6,0,0,1,.19-.46.67.67,0,0,1,.49-.19.66.66,0,0,1,.49.19.58.58,0,0,1,.2.46.62.62,0,0,1-.2.48A.69.69,0,0,1,31.6,65.54Zm.56.53V70.5H31V66.07Zm2.8,4.5a2.38,2.38,0,0,1-1-.19,1.77,1.77,0,0,1-.69-.54A1.42,1.42,0,0,1,33,69.1h1.13a.59.59,0,0,0,.25.42.84.84,0,0,0,.55.17.82.82,0,0,0,.5-.13.37.37,0,0,0,.18-.32.33.33,0,0,0-.22-.32,3.23,3.23,0,0,0-.7-.24,7.58,7.58,0,0,1-.82-.25,1.69,1.69,0,0,1-.54-.39,1.09,1.09,0,0,1-.22-.72,1.22,1.22,0,0,1,.2-.67,1.56,1.56,0,0,1,.61-.48,2.29,2.29,0,0,1,.94-.17,1.85,1.85,0,0,1,1.26.4,1.41,1.41,0,0,1,.52,1.06H35.59a.6.6,0,0,0-.22-.42,1,1,0,0,0-1,0,.36.36,0,0,0-.16.31.37.37,0,0,0,.23.34,3.41,3.41,0,0,0,.69.23,7.08,7.08,0,0,1,.8.25,1.46,1.46,0,0,1,.53.4,1,1,0,0,1,.24.71,1.16,1.16,0,0,1-.21.68,1.29,1.29,0,0,1-.61.48A2.19,2.19,0,0,1,35,70.57Z"/><path class="cls-2" d="M7,40a7,7,0,0,1-7-7V25.5A25.5,25.5,0,0,1,25.5,0h0A25.5,25.5,0,0,1,51,25.5V33a7,7,0,0,1-7,7Z"/><g class="cls-3"><path class="cls-4" d="M37.5,42.5V19a2.35,2.35,0,0,0-2.4-2.37H31.82c0-.59-.13-.68-.72-.68h-3a2.68,2.68,0,0,0-.79-1.74,2.61,2.61,0,0,0-1.75-.75A2.57,2.57,0,0,0,24,14a2.67,2.67,0,0,0-1.14,2h-3c-.51,0-.64.13-.64.68H16a2.35,2.35,0,0,0-2.47,2.46V46.07A2.36,2.36,0,0,0,16,48.5H35.06a2.36,2.36,0,0,0,2.44-2.44Zm-12-27.73a.82.82,0,0,1,.82.81.83.83,0,0,1-.85.81.82.82,0,0,1-.8-.83A.81.81,0,0,1,25.51,14.77ZM35.78,45.91c0,.68-.2.88-.88.88H16.1c-.68,0-.88-.2-.88-.88V19.2c0-.6.22-.82.82-.82h3.29c.21,0,.27.07.31.26.12.62.26,1.25.39,1.87.07.36.21.48.59.49s1,0,1.45,0h8.17c.53,0,.65-.09.76-.6.14-.66.27-1.32.42-2H35c.53,0,.77.23.77.76V45.91Z"/><path class="cls-4" d="M25.5,31.22a4.12,4.12,0,1,0-4.13-4.15A4.13,4.13,0,0,0,25.5,31.22Zm-2.84-5h2v-2h1.69v2h2v1.69h-2v2H24.67V28h-2Z"/><path class="cls-4" d="M18.83,35.61H32.21a.73.73,0,0,0,.64-.28.94.94,0,0,0,.09-1,.76.76,0,0,0-.77-.44H18.84a.81.81,0,0,0-.88.86A.79.79,0,0,0,18.83,35.61Z"/><path class="cls-4" d="M32.17,38.11H18.81a.75.75,0,0,0-.64.27.92.92,0,0,0-.12,1,.76.76,0,0,0,.78.46H32.19a.75.75,0,0,0,.64-.27.92.92,0,0,0,.12-1A.77.77,0,0,0,32.17,38.11Z"/><path class="cls-4" d="M32.17,42.33H18.83a.79.79,0,0,0-.76.41A.88.88,0,0,0,18.85,44H32.16a.8.8,0,0,0,.88-.86A.79.79,0,0,0,32.17,42.33Z"/></g></g></g></svg>